<svg viewBox="152.63217163085938&#10;         -1.4291380643844604&#10;         421.5957336425781&#10;         916.0775145292282" fill="none" xmlns="http://www.w3.org/2000/svg" xmlns:xlink="http://www.w3.org/1999/xlink">
<rect x="-155" y="-44" width="1919" height="1291" fill="url(#pattern0_125_203)" fill-opacity="0.5"/>
<defs>
<pattern id="pattern0_125_203" patternUnits="userSpaceOnUse" patternTransform="matrix(418.804 0 0 912.12 -157.999 -44)" preserveAspectRatio="none" viewBox="-9.99707 0 1396.01 3040.4" width="1" height="1">
<use xlink:href="#pattern0_125_203_inner" transform="translate(-1396.01 0)"/>
<g id="pattern0_125_203_inner">
<path d="M634.96 708.74C601.76 714.94 596.76 723.58 560.99 730.38C529.23 736.42 509.53 740.17 489.19 730.38C454.91 713.89 446.31 672.19 444.56 663.68C443 656.13 433.69 610.99 464.11 576.37C469.72 569.99 495.24 542.84 531.89 546.19C549.36 547.79 562.2 555.67 568.76 560.43C569.1 553.04 571.13 528.63 590.1 509.14C612.84 485.78 648.9 480.82 677.42 492.87C711.75 507.37 722.48 541.15 723.99 546.19C731.85 542.07 743.74 536.78 758.92 533.62C767.66 531.8 800.67 524.92 826.84 537.5C857.47 552.23 875.44 592.03 873.41 636.47C874.13 644.41 875.27 668.39 859.83 690.84C843.18 715.05 817.97 721.92 811.32 723.62C775.97 732.68 763.62 711.72 704.59 706.27C691.28 705.04 666.2 702.9 634.96 708.73V708.74Z" stroke="white" stroke-width="20" stroke-miterlimit="10"/>
<path d="M597.14 674.93C590.05 678.44 575.79 665.67 568.34 654.6C553.34 632.32 558.39 605.74 560.72 596.14C569.16 600.64 588.54 612.54 597.15 635.53C602.53 649.89 604.68 671.19 597.15 674.92L597.14 674.93Z" fill="white"/>
<path d="M651.65 654.2C642.14 653.54 633.62 632.6 631.52 617.33C627.29 586.58 646.94 563.27 654.58 555.16C661.26 564.53 675.75 587.57 672.72 615.3C670.83 632.62 661.75 654.91 651.65 654.21V654.2Z" fill="white"/>
<path d="M707.75 674.72C700.49 671.58 701.02 652.44 704.65 639.6C711.96 613.75 735.5 600.42 744.33 596C746.35 605.35 749.79 627.83 737.81 649.26C730.32 662.65 715.46 678.06 707.75 674.72Z" fill="white"/>
<path d="M65.614 386.35C32.554 386.08 4.98403 360.27 0.624027 334.63C-2.03597 319.01 4.35403 306.05 9.49403 295.95C29.454 256.74 48.864 218.64 69.874 178C88.944 217.19 108.004 256.38 127.074 295.58C130.114 302.37 135.574 317.24 131.844 334.66C125.704 363.37 97.284 386.61 65.624 386.35H65.614Z" stroke="white" stroke-width="20" stroke-miterlimit="10"/>
<path d="M1201.61 1029.35C1168.55 1029.08 1140.98 1003.27 1136.62 977.63C1133.96 962.01 1140.35 949.05 1145.49 938.95C1165.45 899.74 1184.86 861.64 1205.87 821C1224.94 860.19 1244 899.38 1263.07 938.58C1266.11 945.37 1271.57 960.24 1267.84 977.66C1261.7 1006.37 1233.28 1029.61 1201.62 1029.35H1201.61Z" stroke="white" stroke-width="20" stroke-miterlimit="10"/>
<circle cx="171" cy="991" r="38" fill="white"/>
<circle cx="874" cy="38" r="38" fill="white"/>
<circle cx="711" cy="1344" r="38" fill="white"/>
</g>
<use xlink:href="#pattern0_125_203_inner" transform="translate(-698.006 1520.2)"/>
<use xlink:href="#pattern0_125_203_inner" transform="translate(698.006 1520.2)"/>
</pattern></defs>
</svg>