<svg width="26" height="28" viewBox="0 0 26 28" fill="none" xmlns="http://www.w3.org/2000/svg">
<path d="M-5.72205e-06 21.5841H25.2842C24.7139 20.7742 23.8295 19.4032 23.0561 17.5748C20.1918 10.8015 22.7563 6.97207 19.7597 3.26952C17.1666 0.0654336 12.8722 0 12.642 0C12.4117 0 8.11766 0.0654336 5.52481 3.26952C2.52826 6.97207 5.13078 10.8175 2.22814 17.5748C1.46286 19.3563 0.602423 20.7174 -5.72205e-06 21.5841Z" fill="#3B7536"/>
<path d="M15.4172 22.8899C15.4172 23.2949 15.3374 23.6958 15.1825 24.0699C15.0275 24.444 14.8004 24.7839 14.5141 25.0703C14.2277 25.3566 13.8878 25.5837 13.5137 25.7387C13.1396 25.8936 12.7387 25.9734 12.3337 25.9734C11.9288 25.9734 11.5279 25.8936 11.1538 25.7387C10.7797 25.5837 10.4397 25.3566 10.1534 25.0703C9.8671 24.7839 9.63998 24.444 9.48502 24.0699C9.33006 23.6958 9.25031 23.2949 9.25031 22.8899L12.3337 22.8899H15.4172Z" fill="#3B7536"/>
<path d="M17.2287 22.742C17.2287 23.3755 17.1039 24.0028 16.8615 24.5881C16.619 25.1734 16.2637 25.7052 15.8157 26.1531C15.3678 26.6011 14.836 26.9564 14.2507 27.1988C13.6654 27.4413 13.0381 27.566 12.4046 27.566C11.7711 27.566 11.1438 27.4413 10.5585 27.1988C9.97325 26.9564 9.44145 26.6011 8.9935 26.1531C8.54554 25.7052 8.19021 25.1734 7.94778 24.5881C7.70534 24.0028 7.58057 23.3755 7.58057 22.742H8.37524C8.37524 23.2711 8.47946 23.7951 8.68195 24.284C8.88445 24.7728 9.18125 25.217 9.55541 25.5912C9.92958 25.9654 10.3738 26.2622 10.8626 26.4647C11.3515 26.6671 11.8755 26.7714 12.4046 26.7714C12.9338 26.7714 13.4577 26.6671 13.9466 26.4647C14.4355 26.2622 14.8797 25.9654 15.2538 25.5912C15.628 25.217 15.9248 24.7728 16.1273 24.284C16.3298 23.7951 16.434 23.2711 16.434 22.742H17.2287Z" fill="#3B7536"/>
</svg>
