<svg width="66" height="81" viewBox="0 0 66 81" fill="none" xmlns="http://www.w3.org/2000/svg">
<path d="M47.8478 8.29033C41.5334 10.4125 39.3097 11.4658 36.6022 14.0215C35.0968 15.4432 34.2436 16.8373 33.7529 18.0482C33.6238 18.3664 33.3539 18.5152 33.081 18.5201C33.081 18.5201 33.0803 18.5201 33.079 18.5201C32.7499 18.594 32.3755 18.459 32.2159 18.0659C31.7243 16.855 30.8721 15.4609 29.3656 14.0402C26.6592 11.4845 24.4345 10.4303 18.121 8.30905C15.0343 7.27159 9.4046 6.32969 11.1583 2.55818C13.7673 -3.05376 24.6473 1.79363 28.9016 5.95333C30.5331 7.54844 32.147 10.5899 32.9815 13.0599C33.814 10.5869 35.4308 7.53366 37.0673 5.9356C41.3216 1.7759 52.2006 -3.07248 54.8105 2.54045C56.5643 6.31097 50.9336 7.25385 47.8478 8.29033Z" fill="#397437"/>
<path d="M2.28882e-05 47.3865C2.28882e-05 56.1386 3.4768 64.5323 9.66549 70.721C15.8542 76.9097 24.2479 80.3865 33 80.3865C41.7521 80.3865 50.1458 76.9097 56.3345 70.721C62.5232 64.5323 66 56.1386 66 47.3865L33 47.3865H2.28882e-05Z" fill="#64463C"/>
<path d="M66 47.3865C66 38.6344 62.5232 30.2407 56.3345 24.052C50.1458 17.8633 41.7521 14.3865 33 14.3865C24.2479 14.3865 15.8542 17.8633 9.66548 24.052C3.47678 30.2407 1.32154e-06 38.6343 0 47.3865L33 47.3865H66Z" fill="#E9C5AD"/>
</svg>
