<svg width="28" height="23" viewBox="0 0 28 23" fill="none" xmlns="http://www.w3.org/2000/svg">
<g clip-path="url(#clip0_546_121)">
<path d="M14.3564 23.0003C10.1102 20.253 6.88637 17.6316 4.62437 15.6245C3.42875 14.5633 1.76125 13.1323 0.760394 10.6541C0.434589 9.84804 -0.0919886 8.50318 0.0138079 6.75373C0.159879 4.34197 1.47272 1.75609 3.28328 0.802536C6.19268 -0.729742 11.4062 1.41671 13.9765 7.22544C15.8839 1.68708 20.6267 -0.8931 23.8571 0.277636C25.8438 0.997554 27.5966 3.25861 27.9393 5.72862C28.2182 7.74084 27.4842 9.33517 26.8765 10.6553C25.7915 13.012 24.3224 14.443 22.6597 16.0164C20.6658 17.9026 17.8982 20.3517 14.357 23.0009L14.3564 23.0003Z" fill="#3B7536"/>
</g>
<defs>
<clipPath id="clip0_546_121">
<rect width="28" height="23" fill="white"/>
</clipPath>
</defs>
</svg>
