<svg width="25" height="29" viewBox="0 0 25 29" fill="none" xmlns="http://www.w3.org/2000/svg">
<rect y="6.10352e-05" width="24.0509" height="28.3677" rx="4" fill="#3B7536"/>
<rect x="3.70013" y="7.40033" width="4.31682" height="4.31682" fill="white"/>
<rect x="3.70013" y="14.184" width="4.31682" height="4.31682" fill="white"/>
<rect x="5.55023" y="6.10352e-05" width="12.3338" height="2.46676" fill="white"/>
<path d="M13.6019 21.4421C13.1828 21.0824 12.5515 21.1304 12.1917 21.5495C11.832 21.9686 11.8801 22.5999 12.2991 22.9596L12.9505 22.2009L13.6019 21.4421ZM14.9476 25.2332L15.7064 25.8846L17.0091 24.3671L16.2503 23.7157L15.599 24.4745L14.9476 25.2332ZM12.9505 22.2009L12.2991 22.9596L14.9476 25.2332L15.599 24.4745L16.2503 23.7157L13.6019 21.4421L12.9505 22.2009Z" fill="white"/>
<path d="M20.7388 20.3166C21.1109 19.9086 21.0818 19.2761 20.6737 18.9039C20.2656 18.5318 19.6331 18.5609 19.261 18.969L19.9999 19.6428L20.7388 20.3166ZM15.3908 23.2129L14.7169 23.9518L16.1947 25.2995L16.8685 24.5606L16.1297 23.8868L15.3908 23.2129ZM19.9999 19.6428L19.261 18.969L15.3908 23.2129L16.1297 23.8868L16.8685 24.5606L20.7388 20.3166L19.9999 19.6428Z" fill="white"/>
</svg>
