<svg width="29" height="31" viewBox="0 0 29 31" fill="none" xmlns="http://www.w3.org/2000/svg">
<circle cx="14.4922" cy="15.1089" r="14.4922" fill="#3B7536"/>
<line x1="14.75" y1="3.21145e-08" x2="14.75" y2="30.2178" stroke="white" stroke-width="1.5"/>
<line y1="10.967" x2="28.9844" y2="10.967" stroke="white" stroke-width="1.5"/>
<line x1="6.55671e-08" y1="19.6007" x2="28.9844" y2="19.6007" stroke="white" stroke-width="1.5"/>
<path d="M14.5 0.75C16.7763 0.75 18.946 2.2086 20.584 4.79492C22.216 7.3719 23.25 10.9779 23.25 15C23.25 19.0221 22.216 22.6281 20.584 25.2051C18.946 27.7914 16.7763 29.25 14.5 29.25C12.2237 29.25 10.054 27.7914 8.41602 25.2051C6.784 22.6281 5.75 19.0221 5.75 15C5.75 10.9779 6.784 7.3719 8.41602 4.79492C10.054 2.2086 12.2237 0.75 14.5 0.75Z" stroke="white" stroke-width="1.5"/>
</svg>
