<svg width="63" height="76" viewBox="0 0 63 76" fill="none" xmlns="http://www.w3.org/2000/svg">
<path d="M45.2369 7.83794C39.267 9.84435 37.1646 10.8401 34.6049 13.2564C33.1816 14.6005 32.375 15.9185 31.9111 17.0633C31.7891 17.3642 31.5338 17.5049 31.2758 17.5095C31.2758 17.5095 31.2752 17.5095 31.2739 17.5095C30.9628 17.5794 30.6089 17.4518 30.458 17.0801C29.9932 15.9353 29.1874 14.6173 27.7632 13.2741C25.2044 10.8578 23.1011 9.86112 17.1322 7.85564C14.2139 6.87479 8.89139 5.9843 10.5494 2.41859C13.016 -2.88713 23.3023 1.69576 27.3245 5.62847C28.867 7.13654 30.3928 10.012 31.1817 12.3472C31.9688 10.0092 33.4974 7.12257 35.0446 5.6117C39.0667 1.67899 49.3521 -2.90483 51.8196 2.40182C53.4777 5.9666 48.1543 6.85803 45.2369 7.83794Z" fill="#D4944F"/>
<path d="M3.05176e-05 44.8007C3.05176e-05 53.0753 3.28709 61.0109 9.13808 66.8619C14.9891 72.7129 22.9247 76 31.1993 76C39.4739 76 47.4095 72.7129 53.2605 66.8619C59.1115 61.011 62.3986 53.0753 62.3986 44.8007L31.1993 44.8007L3.05176e-05 44.8007Z" fill="#D4944F"/>
<path d="M62.3985 44.8008C62.3985 36.5263 59.1115 28.5906 53.2605 22.7396C47.4095 16.8886 39.4738 13.6016 31.1993 13.6016C22.9247 13.6016 14.9891 16.8886 9.13806 22.7396C3.28706 28.5906 1.24942e-06 36.5263 0 44.8008L31.1993 44.8008H62.3985Z" fill="#D4944F"/>
</svg>
