<svg width="43" height="48" viewBox="0 0 43 48" fill="none" xmlns="http://www.w3.org/2000/svg">
<path d="M21.5593 22.6526C28.6783 22.6526 34.2966 28.0731 34.2966 34.5764C34.2966 41.0797 28.6783 46.5002 21.5593 46.5002C14.4404 46.5002 8.82208 41.0797 8.82202 34.5764C8.82202 28.0731 14.4403 22.6526 21.5593 22.6526Z" stroke="#3B7536" stroke-width="3"/>
<path d="M15.4958 9.09802C18.1021 4.90619 24.203 4.90619 26.8093 9.09802C27.7263 10.5729 29.183 11.6313 30.8691 12.0476C35.6611 13.231 37.5464 19.0333 34.3651 22.8073C33.2458 24.1352 32.6894 25.8477 32.8144 27.5799C33.1698 32.5031 28.2341 36.0891 23.6616 34.2298C22.0529 33.5756 20.2522 33.5756 18.6434 34.2298C14.071 36.0891 9.13532 32.5031 9.49069 27.5799C9.61573 25.8477 9.0593 24.1352 7.93999 22.8073C4.75871 19.0333 6.64398 13.231 11.436 12.0476C13.1221 11.6313 14.5788 10.5729 15.4958 9.09802Z" fill="#3B7536"/>
<circle cx="21.5593" cy="21.5593" r="6.91525" fill="white"/>
</svg>
