<svg width="37" height="37" viewBox="0 0 37 37" fill="none" xmlns="http://www.w3.org/2000/svg">
<path d="M10.6436 0.316406H26.0596C31.757 0.316595 36.3865 4.94608 36.3867 10.6436V26.0596C36.3866 28.7985 35.299 31.4256 33.3623 33.3623C31.4256 35.299 28.7985 36.3866 26.0596 36.3867H10.6436C4.94608 36.3865 0.316595 31.757 0.316406 26.0596V10.6436C0.316499 7.90466 1.40412 5.27752 3.34082 3.34082C5.27752 1.40412 7.90466 0.316499 10.6436 0.316406ZM10.2773 3.35352C8.44126 3.35352 6.68014 4.08353 5.38184 5.38184C4.08353 6.68014 3.35352 8.44126 3.35352 10.2773V26.4258C3.35352 30.2525 6.45064 33.3496 10.2773 33.3496H26.4258C28.2619 33.3496 30.023 32.6196 31.3213 31.3213C32.6196 30.023 33.3496 28.2619 33.3496 26.4258V10.2773C33.3496 6.45064 30.2525 3.35352 26.4258 3.35352H10.2773ZM18.3516 9.49219C20.7012 9.49219 22.9548 10.4255 24.6162 12.0869C26.2777 13.7484 27.2109 16.0019 27.2109 18.3516C27.2109 20.7012 26.2777 22.9548 24.6162 24.6162C22.9548 26.2777 20.7012 27.2109 18.3516 27.2109C16.0019 27.2109 13.7484 26.2777 12.0869 24.6162C10.4255 22.9548 9.49219 20.7012 9.49219 18.3516C9.49219 16.0019 10.4255 13.7484 12.0869 12.0869C13.7484 10.4255 16.0019 9.49219 18.3516 9.49219ZM18.3516 12.5293C16.8075 12.5293 15.3272 13.1435 14.2354 14.2354C13.1435 15.3272 12.5293 16.8075 12.5293 18.3516C12.5293 19.8956 13.1435 21.376 14.2354 22.4678C15.3272 23.5596 16.8075 24.1738 18.3516 24.1738C19.8956 24.1738 21.376 23.5596 22.4678 22.4678C23.5596 21.376 24.1738 19.8956 24.1738 18.3516C24.1738 16.8075 23.5596 15.3272 22.4678 14.2354C21.376 13.1435 19.8956 12.5293 18.3516 12.5293ZM27.9863 6.73926C28.5107 6.73931 29.014 6.94755 29.3848 7.31836C29.7556 7.68917 29.9638 8.19239 29.9639 8.7168C29.9639 9.24118 29.7555 9.74439 29.3848 10.1152C29.014 10.486 28.5107 10.6943 27.9863 10.6943C27.4619 10.6943 26.9588 10.4861 26.5879 10.1152C26.217 9.74437 26.0088 9.24127 26.0088 8.7168C26.0088 8.19239 26.2171 7.68917 26.5879 7.31836C26.9587 6.94762 27.4619 6.73926 27.9863 6.73926Z" fill="#3B7536" stroke="#3B7536" stroke-width="0.632812"/>
</svg>
