<svg width="25" height="53" viewBox="0 0 25 53" fill="none" xmlns="http://www.w3.org/2000/svg">
<path d="M5.14516 24H12.1613V53H0L5.14516 24Z" fill="#D4944F"/>
<path d="M19.1773 24H12.1612V53H24.3225L19.1773 24Z" fill="#D4944F"/>
<path d="M12.5 7C18.8147 7 24 12.3353 24 19C24 25.6647 18.8147 31 12.5 31C6.18533 31 1 25.6647 1 19C1 12.3353 6.18533 7 12.5 7Z" fill="#D4944F" stroke="white" stroke-width="2"/>
<circle cx="8" cy="18" r="2" fill="white"/>
<circle cx="17" cy="18" r="2" fill="white"/>
<path d="M18.8727 3.57738C16.1654 4.49314 15.212 4.94762 14.0511 6.05044C13.4057 6.66393 13.0399 7.26551 12.8295 7.78801C12.7742 7.92533 12.6584 7.98953 12.5414 7.99165C12.5414 7.99165 12.5411 7.99165 12.5406 7.99165C12.3995 8.02354 12.239 7.9653 12.1705 7.79566C11.9597 7.27316 11.5943 6.67158 10.9485 6.05852C9.78806 4.9557 8.83423 4.50079 6.12735 3.58546C4.80391 3.13778 2.39019 2.73134 3.1421 1.10389C4.26067 -1.31774 8.92548 0.773974 10.7495 2.56893C11.449 3.25724 12.141 4.56967 12.4987 5.6355C12.8557 4.56839 13.5489 3.25087 14.2505 2.56128C16.0745 0.766322 20.7389 -1.32581 21.8579 1.09623C22.6098 2.72326 20.1957 3.13013 18.8727 3.57738Z" fill="#397437"/>
</svg>
