<svg width="431" height="360" viewBox="0 0 431 360" fill="none" xmlns="http://www.w3.org/2000/svg">
<path d="M155.934 256.385V290.488" stroke="#4C413E" stroke-width="3.75" stroke-miterlimit="10" stroke-linecap="round"/>
<path d="M257.184 255.538V289.641" stroke="#4C413E" stroke-width="3.75" stroke-miterlimit="10" stroke-linecap="round"/>
<path d="M345.602 176.173C337.989 178.123 341.312 189.365 325.877 191.533C310.584 193.678 297.632 178.04 297.632 173.413V128.938C297.632 124.31 301.052 120.523 305.229 120.523C305.229 120.523 398.589 101.21 399.699 134.645C400.194 149.57 384.902 148.76 380.559 153.35C375.219 159.005 381.144 165.358 370.404 174.44C359.567 183.605 349.674 175.13 345.602 176.173Z" fill="#3B7536" stroke="#4C413E" stroke-width="2.25" stroke-miterlimit="10"/>
<path d="M67.5091 176.173C75.1216 178.123 71.7991 189.365 87.2341 191.533C102.527 193.678 115.479 178.04 115.479 173.413V128.938C115.479 124.31 112.059 120.523 107.882 120.523C107.882 120.523 14.5216 101.21 13.4116 134.645C12.9166 149.57 28.2091 148.76 32.5516 153.35C37.8916 159.005 31.9666 165.358 42.7066 174.44C53.5441 183.605 63.4366 175.13 67.5091 176.173Z" fill="#3B7536" stroke="#4C413E" stroke-width="2.25" stroke-miterlimit="10"/>
<path d="M202.562 33.0054C202.817 35.0379 202.892 36.8079 202.862 38.3229C202.824 40.0479 200.469 40.4979 199.817 38.9004C198.789 36.3654 197.004 33.4479 193.854 30.4704C188.192 25.1229 183.534 22.9179 170.319 18.4779C163.862 16.3104 152.079 14.3379 155.747 6.44043C161.207 -5.30457 183.977 4.84293 192.887 13.5429C197.432 17.9829 201.909 27.7854 202.569 32.9979L202.562 33.0054Z" fill="#3B7536" stroke="#4C413E" stroke-width="2.25" stroke-miterlimit="10"/>
<path d="M203.177 33.3804C202.922 35.4129 202.847 37.1829 202.877 38.6979C202.914 40.4229 205.269 40.8729 205.922 39.2754C206.949 36.7404 208.734 33.8229 211.884 30.8454C217.547 25.4979 222.204 23.2929 235.419 18.8529C241.877 16.6854 253.659 14.7129 249.992 6.81543C244.532 -4.92957 221.762 5.21793 212.852 13.9179C208.307 18.3579 203.829 28.1604 203.169 33.3729L203.177 33.3804Z" fill="#3B7536" stroke="#4C413E" stroke-width="2.25" stroke-miterlimit="10"/>
<path d="M44.2515 142.7C40.674 144.748 38.6115 143.833 37.179 142.07C35.7465 140.308 35.484 138.358 39.0615 136.31C42.639 134.263 48.699 132.883 50.1315 134.653C51.564 136.415 47.8215 140.653 44.244 142.7H44.2515Z" stroke="#4D403D" stroke-width="2.25" stroke-miterlimit="10"/>
<path d="M60.6091 156.62C57.9541 160.258 55.7491 160.213 53.8591 159.028C51.9691 157.843 51.0991 155.968 53.7541 152.33C56.4091 148.693 61.5841 144.673 63.4741 145.858C65.3641 147.043 63.2641 152.983 60.6091 156.613V156.62Z" stroke="#4D403D" stroke-width="2.25" stroke-miterlimit="10"/>
<path d="M79.9443 164.308C79.3893 168.748 77.4543 169.603 75.2418 169.28C73.0293 168.958 71.3718 167.57 71.9268 163.13C72.4818 158.69 75.0393 152.87 77.2518 153.193C79.4643 153.515 80.5068 159.868 79.9518 164.308H79.9443Z" stroke="#4D403D" stroke-width="2.25" stroke-miterlimit="10"/>
<path d="M365.537 141.763C369.115 143.81 371.177 142.895 372.61 141.133C374.042 139.37 374.305 137.42 370.727 135.373C367.15 133.325 361.09 131.945 359.657 133.715C358.225 135.478 361.967 139.715 365.545 141.763H365.537Z" stroke="#4D403D" stroke-width="2.25" stroke-miterlimit="10"/>
<path d="M349.179 155.682C351.834 159.32 354.039 159.275 355.929 158.09C357.819 156.905 358.689 155.03 356.034 151.392C353.379 147.755 348.204 143.735 346.314 144.92C344.424 146.105 346.524 152.045 349.179 155.675V155.682Z" stroke="#4D403D" stroke-width="2.25" stroke-miterlimit="10"/>
<path d="M329.844 163.37C330.399 167.81 332.334 168.665 334.547 168.343C336.759 168.013 338.417 166.633 337.862 162.193C337.307 157.753 334.749 151.933 332.537 152.255C330.324 152.578 329.282 158.93 329.837 163.37H329.844Z" stroke="#4D403D" stroke-width="2.25" stroke-miterlimit="10"/>
<path d="M307.787 154.258C307.787 212.998 277.427 253.408 203.814 253.408C134.454 253.408 99.8418 212.998 99.8418 154.258C99.8418 95.5179 146.394 47.9004 203.814 47.9004C261.234 47.9004 307.787 95.5179 307.787 154.265V154.258Z" fill="#64453C" stroke="#4C413E" stroke-width="2.25" stroke-miterlimit="10"/>
<path d="M312.054 126.965C316.937 156.665 326.064 178.4 306.167 178.798C295.562 179.008 291.782 167.383 284.837 168.755C279.204 169.865 267.182 178.498 263.094 179.653C253.352 182.405 243.279 167.863 232.494 167.863C225.804 167.863 216.699 181.258 206.229 181.108C194.709 180.943 187.809 166.618 178.202 168.5C170.259 170.053 162.699 178.865 154.149 179.825C147.414 180.583 136.644 167.9 127.322 168.178C116.807 168.493 118.397 177.74 102.624 181.438C84.1069 185.78 92.2219 157.438 97.4719 124.198C105.647 72.4703 159.414 35.0903 205.322 35.0903C256.142 35.0903 304.382 80.1803 312.069 126.958L312.054 126.965Z" fill="#E9C5AD" stroke="#4C413E" stroke-width="2.25" stroke-miterlimit="10"/>
<path d="M136.262 243.883C136.734 241.58 134.724 235.535 138.279 234.358C143.252 232.715 144.902 236.908 147.977 237.545C151.682 238.31 155.147 236.675 158.289 238.295C161.207 239.803 162.707 242.473 164.087 245.6C165.377 248.518 176.094 245.758 176.162 251.323C176.252 258.425 172.427 255.035 172.104 258.875C171.992 260.188 172.104 262.865 170.394 263.765C167.897 265.078 166.217 263.45 163.599 264.65C162.189 265.295 162.819 266.645 160.367 266.983C157.922 267.32 157.907 265.648 155.732 265.093C154.209 264.703 153.812 266.683 151.554 266.308C149.424 265.955 150.032 264.23 147.984 263.563C146.319 263.015 144.819 264.41 142.322 263.533C138.032 262.033 140.177 258.823 138.774 257.113C137.439 255.485 133.292 258.53 132.227 253.108C131.244 248.12 135.482 247.625 136.247 243.883H136.262Z" fill="#E9C5AD" stroke="#4C413E" stroke-width="2.25" stroke-miterlimit="10"/>
<path d="M276.249 243.883C275.777 241.58 277.787 235.535 274.232 234.358C269.259 232.715 267.609 236.908 264.534 237.545C260.829 238.31 257.364 236.675 254.222 238.295C251.304 239.803 249.804 242.473 248.424 245.6C247.134 248.518 236.417 245.758 236.349 251.323C236.259 258.425 240.084 255.035 240.407 258.875C240.519 260.188 240.407 262.865 242.117 263.765C244.614 265.078 246.294 263.45 248.912 264.65C250.322 265.295 249.692 266.645 252.144 266.983C254.589 267.32 254.604 265.648 256.779 265.093C258.302 264.703 258.699 266.683 260.957 266.308C263.087 265.955 262.479 264.23 264.527 263.563C266.192 263.015 267.692 264.41 270.189 263.533C274.479 262.033 272.334 258.823 273.737 257.113C275.072 255.485 279.219 258.53 280.284 253.108C281.267 248.12 277.029 247.625 276.264 243.883H276.249Z" fill="#E9C5AD" stroke="#4C413E" stroke-width="2.25" stroke-miterlimit="10"/>
<path d="M166.346 116.161C176.196 115.204 183.522 107.654 182.71 99.2973C181.898 90.9406 173.255 84.9419 163.406 85.899C153.557 86.856 146.231 94.4063 147.043 102.763C147.855 111.12 156.497 117.118 166.346 116.161Z" fill="white" stroke="#4C413E" stroke-width="2.25" stroke-miterlimit="10"/>
<path d="M260.622 102.191C261.168 93.8124 253.606 86.4986 243.731 85.8548C233.856 85.2111 225.409 91.4812 224.863 99.8595C224.316 108.238 231.878 115.552 241.753 116.195C251.628 116.839 260.075 110.569 260.622 102.191Z" fill="white" stroke="#4C413E" stroke-width="2.25" stroke-miterlimit="10"/>
<path d="M167.82 113.615C175.789 112.762 181.633 106.308 180.872 99.1991C180.111 92.0904 173.033 87.0192 165.064 87.8723C157.094 88.7254 151.251 95.1797 152.012 102.288C152.773 109.397 159.85 114.468 167.82 113.615Z" fill="#231815"/>
<path d="M255.521 102.582C256.379 95.4844 250.677 88.9576 242.786 88.004C234.894 87.0504 227.802 92.0313 226.944 99.1289C226.086 106.227 231.788 112.753 239.68 113.707C247.571 114.661 254.664 109.68 255.521 102.582Z" fill="#231815"/>
<path d="M227.252 123.59C227.252 123.59 220.397 137.525 202.554 137.525C184.712 137.525 178.187 123.59 178.187 123.59C178.187 123.59 188.657 109.655 202.577 109.655C216.497 109.655 227.252 123.59 227.252 123.59Z" fill="#D4944F" stroke="#4C413E" stroke-width="2.25" stroke-miterlimit="10"/>
<path d="M178.187 124.108C178.187 124.108 194.724 121.663 202.719 121.663C211.022 121.663 227.252 124.108 227.252 124.108" stroke="#4C413E" stroke-width="2.25" stroke-miterlimit="10"/>
<path d="M155.162 288.913L144.639 303.013" stroke="#4C413E" stroke-width="3.75" stroke-miterlimit="10" stroke-linecap="round"/>
<path d="M257.169 289.993L269.769 303.013" stroke="#4C413E" stroke-width="3.75" stroke-miterlimit="10" stroke-linecap="round"/>
<path d="M155.454 288.41L141.234 292.52" stroke="#4C413E" stroke-width="3.75" stroke-miterlimit="10" stroke-linecap="round"/>
<path d="M272.702 292.58L257.492 289.993" stroke="#4C413E" stroke-width="3.75" stroke-miterlimit="10" stroke-linecap="round"/>
<path d="M156.189 289.101L159.766 303.178" stroke="#4C413E" stroke-width="3.75" stroke-miterlimit="10" stroke-linecap="round"/>
<path d="M257.169 289.993L253.997 303.178" stroke="#4C413E" stroke-width="3.75" stroke-miterlimit="10" stroke-linecap="round"/>
<path d="M8.85364 341.455C6.82564 344.359 4.22564 344.251 2.69764 343.007C1.16964 341.763 0.737641 338.995 3.32164 336.947C5.01364 335.603 12.4176 332.091 12.4176 332.091C12.4176 332.091 9.97764 339.851 8.85364 341.459V341.455Z" fill="#E9C5AD" stroke="#4C413E" stroke-width="0.8" stroke-miterlimit="10" stroke-linecap="round"/>
<path d="M14.8941 339.803C15.7741 342.779 13.6421 343.739 12.2861 343.687C10.9341 343.639 9.00614 342.583 9.99014 339.627C10.5141 338.055 12.7301 332.291 12.7301 332.291C12.7301 332.291 14.4581 338.351 14.8901 339.803H14.8941Z" fill="#E9C5AD" stroke="#4C413E" stroke-width="0.8" stroke-miterlimit="10" stroke-linecap="round"/>
<path d="M4.04619 330.959C0.838185 330.599 0.186185 332.767 0.454185 334.039C0.718185 335.311 2.11418 336.963 5.01018 335.559C6.55018 334.815 12.1422 331.803 12.1422 331.803C12.1422 331.803 5.61419 331.135 4.05018 330.959H4.04619Z" fill="#E9C5AD" stroke="#4C413E" stroke-width="0.8" stroke-miterlimit="10" stroke-linecap="round"/>
<path d="M27.238 278.107C27.51 278.671 27.702 279.175 27.842 279.615C27.998 280.119 27.362 280.475 27.018 280.075C26.474 279.443 25.678 278.771 24.478 278.215C22.322 277.215 20.762 277.031 16.51 277.027C14.434 277.027 10.834 277.595 11.13 274.959C11.57 271.035 19.138 271.763 22.558 273.419C24.302 274.263 26.546 276.663 27.242 278.107H27.238Z" fill="#3B7536" stroke="#4C413E" stroke-width="0.8" stroke-miterlimit="10" stroke-linecap="round"/>
<path d="M55.1543 340.955V351.351" stroke="#4C413E" stroke-width="1.2" stroke-miterlimit="10" stroke-linecap="round"/>
<path d="M55.146 351.458L58.99 355.43" stroke="#4C413E" stroke-width="1.2" stroke-miterlimit="10" stroke-linecap="round"/>
<path d="M59.9979 352.251L55.3579 351.458" stroke="#4C413E" stroke-width="1.2" stroke-miterlimit="10" stroke-linecap="round"/>
<path d="M55.1456 351.458L54.1816 355.482" stroke="#4C413E" stroke-width="1.2" stroke-miterlimit="10" stroke-linecap="round"/>
<path d="M28.0862 280.027C28.4582 280.531 28.8102 280.939 29.1382 281.267C29.5102 281.643 30.1262 281.243 29.9302 280.755C29.6262 279.979 29.4062 278.959 29.4782 277.639C29.6062 275.267 30.1702 273.799 32.1582 270.043C33.1302 268.207 35.3182 265.295 32.8502 264.319C29.1742 262.871 26.2742 269.899 26.1382 273.695C26.0662 275.631 27.1382 278.739 28.0862 280.031V280.027Z" fill="#3B7536" stroke="#4C413E" stroke-width="0.8" stroke-miterlimit="10" stroke-linecap="round"/>
<path d="M58.338 336.779C58.194 336.079 58.806 334.235 57.722 333.875C56.206 333.375 55.702 334.651 54.762 334.847C53.634 335.083 52.574 334.583 51.618 335.075C50.726 335.535 50.27 336.351 49.85 337.303C49.458 338.191 46.19 337.351 46.166 339.047C46.138 341.215 47.306 340.179 47.402 341.351C47.434 341.751 47.402 342.567 47.922 342.843C48.682 343.243 49.194 342.747 49.994 343.115C50.426 343.311 50.23 343.723 50.982 343.827C51.734 343.931 51.73 343.419 52.394 343.251C52.858 343.131 52.982 343.735 53.666 343.623C54.314 343.515 54.13 342.991 54.754 342.787C55.262 342.619 55.722 343.047 56.482 342.779C57.79 342.319 57.138 341.343 57.562 340.823C57.986 340.303 59.234 341.255 59.558 339.603C59.858 338.083 58.566 337.931 58.33 336.791L58.338 336.779Z" fill="#E9C5AD" stroke="#4C413E" stroke-width="0.8" stroke-miterlimit="10" stroke-linecap="round"/>
<path d="M64.522 325.555C62.674 324.031 60.502 326.871 57.194 323.463C53.914 320.083 55.434 314.079 56.574 313.247L67.526 305.247C68.666 304.415 70.214 304.575 70.966 305.603C70.966 305.603 92.518 325.115 84.486 331.403C80.902 334.211 78.346 330.299 76.438 330.055C74.086 329.755 73.586 332.359 69.418 331.351C65.21 330.331 65.518 326.371 64.53 325.555H64.522Z" fill="#3B7536" stroke="#4C413E" stroke-width="0.8" stroke-miterlimit="10" stroke-linecap="round"/>
<path d="M76.578 324.274C76.718 325.522 77.3141 325.866 78.0061 325.902C78.6981 325.938 79.2261 325.65 79.0861 324.402C78.9461 323.154 78.194 321.414 77.502 321.378C76.81 321.342 76.438 323.026 76.578 324.274Z" stroke="#4D403D" stroke-width="0.4" stroke-miterlimit="10" stroke-linecap="round"/>
<path d="M70.2062 322.751C69.7902 324.059 70.1942 324.595 70.8262 324.847C71.4582 325.099 72.0742 324.975 72.4942 323.667C72.9142 322.359 72.9702 320.363 72.3382 320.111C71.7062 319.859 70.6222 321.443 70.2062 322.751Z" stroke="#4D403D" stroke-width="0.4" stroke-miterlimit="10" stroke-linecap="round"/>
<path d="M64.8658 319.551C63.8978 320.515 64.0578 321.143 64.5498 321.615C65.0418 322.087 65.6858 322.227 66.6538 321.263C67.6218 320.299 68.5418 318.595 68.0498 318.123C67.5578 317.651 65.8338 318.587 64.8658 319.555V319.551Z" stroke="#4D403D" stroke-width="0.4" stroke-miterlimit="10" stroke-linecap="round"/>
<path d="M68.3179 314.131C68.3179 332.043 59.0619 344.367 36.6099 344.367C15.4579 344.367 4.90186 332.043 4.90186 314.131C4.90186 296.219 19.1019 281.699 36.6139 281.699C54.1259 281.699 68.3219 296.219 68.3219 314.135L68.3179 314.131Z" fill="#64453C" stroke="#4C413E" stroke-width="0.8" stroke-miterlimit="10" stroke-linecap="round"/>
<path d="M69.6182 305.807C71.1062 314.863 73.8902 321.495 67.8222 321.615C64.5901 321.679 63.4342 318.135 61.3182 318.555C59.5982 318.895 55.9342 321.527 54.6862 321.879C51.7142 322.719 48.6422 318.283 45.3542 318.283C43.3142 318.283 40.5382 322.367 37.3462 322.323C33.8342 322.275 31.7302 317.903 28.7982 318.479C26.3742 318.955 24.0702 321.639 21.4622 321.931C19.4102 322.163 16.1222 318.295 13.2822 318.379C10.0742 318.475 10.5622 321.295 5.75015 322.423C0.102152 323.747 2.57815 315.103 4.17815 304.967C6.67015 289.191 23.0662 277.795 37.0662 277.795C52.5622 277.795 67.2742 291.547 69.6182 305.811V305.807Z" fill="#E9C5AD" stroke="#4C413E" stroke-width="0.8" stroke-miterlimit="10" stroke-linecap="round"/>
<path d="M28.9697 344.21V354.606" stroke="#4C413E" stroke-width="1.2" stroke-miterlimit="10" stroke-linecap="round"/>
<path d="M28.9741 354.358L32.1821 358.658" stroke="#4C413E" stroke-width="1.2" stroke-miterlimit="10" stroke-linecap="round"/>
<path d="M29.2856 353.975L33.6216 355.227" stroke="#4C413E" stroke-width="1.2" stroke-miterlimit="10" stroke-linecap="round"/>
<path d="M28.8898 354.415L27.8018 358.707" stroke="#4C413E" stroke-width="1.2" stroke-miterlimit="10" stroke-linecap="round"/>
<path d="M22.7337 339.151C22.8777 338.451 22.2657 336.607 23.3497 336.247C24.8657 335.747 25.3697 337.023 26.3097 337.219C27.4377 337.455 28.4977 336.955 29.4537 337.447C30.3457 337.907 30.8017 338.723 31.2217 339.675C31.6137 340.563 34.8817 339.723 34.9057 341.419C34.9337 343.587 33.7657 342.551 33.6697 343.723C33.6377 344.123 33.6697 344.939 33.1497 345.215C32.3897 345.615 31.8777 345.119 31.0777 345.487C30.6457 345.683 30.8417 346.095 30.0897 346.199C29.3377 346.303 29.3417 345.791 28.6777 345.623C28.2137 345.503 28.0897 346.107 27.4057 345.995C26.7577 345.887 26.9417 345.363 26.3177 345.159C25.8097 344.991 25.3497 345.419 24.5897 345.151C23.2817 344.691 23.9337 343.715 23.5097 343.195C23.1017 342.699 21.8377 343.627 21.5137 341.975C21.2137 340.455 22.5057 340.303 22.7417 339.163L22.7337 339.151Z" fill="#E9C5AD" stroke="#4C413E" stroke-width="0.8" stroke-miterlimit="10" stroke-linecap="round"/>
<path d="M33.986 305.827C35.7047 305.827 37.098 305.16 37.098 304.339C37.098 303.517 35.7047 302.851 33.986 302.851C32.2673 302.851 30.874 303.517 30.874 304.339C30.874 305.16 32.2673 305.827 33.986 305.827Z" fill="#E99B9C"/>
<path d="M39.0783 302.512C42.0818 302.22 44.3159 299.918 44.0683 297.369C43.8207 294.821 41.1851 292.992 38.1815 293.284C35.178 293.575 32.9439 295.878 33.1915 298.426C33.4392 300.975 36.0747 302.804 39.0783 302.512Z" fill="white" stroke="#4C413E" stroke-width="0.8" stroke-miterlimit="10" stroke-linecap="round"/>
<path d="M25.4297 323.843C23.3577 325.047 25.2697 328.071 20.9177 329.987C16.6097 331.887 11.5097 328.379 11.1217 327.019C11.1217 327.019 6.94173 323.423 7.42573 313.971C7.58173 310.907 10.6457 309.871 11.7337 309.207C15.0737 307.179 34.7417 297.443 37.8457 307.163C39.2297 311.499 34.6777 312.535 33.7857 314.243C32.6897 316.347 34.9537 317.719 32.5577 321.275C30.1377 324.867 26.5337 323.199 25.4257 323.843H25.4297Z" fill="#3B7536" stroke="#4C413E" stroke-width="0.8" stroke-miterlimit="10" stroke-linecap="round"/>
<path d="M29.4741 312.091C30.6941 312.395 31.2221 311.955 31.4981 311.319C31.7701 310.683 31.6861 310.091 30.4661 309.787C29.2461 309.483 27.3541 309.583 27.0821 310.219C26.8101 310.855 28.2581 311.787 29.4781 312.091H29.4741Z" stroke="#4D403D" stroke-width="0.4" stroke-miterlimit="10" stroke-linecap="round"/>
<path d="M25.83 317.535C26.91 318.379 27.554 318.183 28.01 317.679C28.466 317.175 28.566 316.551 27.482 315.707C26.402 314.863 24.55 314.111 24.094 314.615C23.638 315.119 24.746 316.687 25.83 317.535Z" stroke="#4D403D" stroke-width="0.4" stroke-miterlimit="10" stroke-linecap="round"/>
<path d="M20.7943 321.395C21.3263 322.651 21.9663 322.743 22.5863 322.463C23.2063 322.183 23.5783 321.639 23.0463 320.383C22.5143 319.127 21.2823 317.631 20.6583 317.911C20.0343 318.191 20.2583 320.139 20.7903 321.399L20.7943 321.395Z" stroke="#4D403D" stroke-width="0.4" stroke-miterlimit="10" stroke-linecap="round"/>
<path d="M63.2694 297.935C63.4314 295.79 61.5592 293.899 59.0876 293.712C56.616 293.526 54.4809 295.114 54.3189 297.259C54.1568 299.405 56.029 301.295 58.5006 301.482C60.9723 301.669 63.1073 300.081 63.2694 297.935Z" fill="white" stroke="#4C413E" stroke-width="0.8" stroke-miterlimit="10" stroke-linecap="round"/>
<path d="M39.7789 301.737C42.2083 301.477 43.9896 299.509 43.7575 297.341C43.5254 295.173 41.3679 293.626 38.9384 293.886C36.509 294.146 34.7277 296.114 34.9598 298.283C35.1918 300.451 37.3494 301.997 39.7789 301.737Z" fill="#231815"/>
<path d="M62.7472 297.92C63.0246 296.11 61.6527 294.398 59.683 294.096C57.7133 293.795 55.8918 295.017 55.6145 296.828C55.3371 298.638 56.709 300.35 58.6787 300.652C60.6484 300.954 62.4699 299.731 62.7472 297.92Z" fill="#231815"/>
<path d="M57.3221 304.474C57.3221 304.474 53.7941 306.118 49.6221 306.238C45.4501 306.362 41.8301 304.946 41.8301 304.946C41.8301 304.946 45.3581 303.306 49.5301 303.182C53.7021 303.058 57.3181 304.474 57.3181 304.474H57.3221Z" fill="#735632"/>
<path d="M56.9457 304.131C56.9457 304.131 53.0937 302.999 50.6977 303.115C48.0297 303.243 42.1777 304.643 42.1777 304.643C42.7417 303.023 48.3537 300.403 50.7657 300.331C53.4057 300.255 56.2377 302.455 56.9497 304.131H56.9457Z" fill="#D4944F" stroke="#4C413E" stroke-width="0.8" stroke-miterlimit="10" stroke-linecap="round"/>
<path d="M57.0019 304.747C57.0019 304.747 51.7979 305.475 49.3979 305.503C46.7299 305.531 42.1899 305.203 42.1899 305.203C42.8459 306.787 45.5939 309.247 49.4499 309.131C53.3059 309.019 56.3939 306.467 57.0019 304.751V304.747Z" fill="#D4944F" stroke="#4C413E" stroke-width="0.8" stroke-miterlimit="10" stroke-linecap="round"/>
<path d="M63.946 304.339C65.6647 304.339 67.058 303.673 67.058 302.851C67.058 302.029 65.6647 301.363 63.946 301.363C62.2273 301.363 60.834 302.029 60.834 302.851C60.834 303.673 62.2273 304.339 63.946 304.339Z" fill="#E99B9C"/>
<path d="M409.663 267.125V266.774L411.818 263.557H409.64V263.128H412.396V263.479L410.241 266.696H412.419V267.125H409.663Z" fill="#040000"/>
<path d="M406.311 271.809V271.558L407.851 269.259H406.294V268.952H408.264V269.203L406.724 271.502H408.281V271.809H406.311Z" fill="#040000"/>
<path d="M403.67 275.725V275.491L405.105 273.349H403.654V273.063H405.49V273.297L404.055 275.439H405.505V275.725H403.67Z" fill="#040000"/>
<path d="M341.844 299.993L332.544 307.565" stroke="#4C413E" stroke-width="1.2" stroke-miterlimit="10" stroke-linecap="round"/>
<path d="M332.42 306.949L326.928 309.797" stroke="#4C413E" stroke-width="1.2" stroke-miterlimit="10" stroke-linecap="round"/>
<path d="M333.032 306.961L327.908 306.025" stroke="#4C413E" stroke-width="1.2" stroke-miterlimit="10" stroke-linecap="round"/>
<path d="M332.776 307.493L329.728 311.597" stroke="#4C413E" stroke-width="1.2" stroke-miterlimit="10" stroke-linecap="round"/>
<path d="M344.896 293.153C345.688 292.925 347.24 291.305 348.192 292.221C349.52 293.501 348.484 294.701 348.792 295.761C349.16 297.041 350.24 297.849 350.248 299.093C350.256 300.249 349.672 301.153 348.928 302.097C348.232 302.977 350.848 305.857 349.128 306.793C346.932 307.985 347.36 306.237 346.112 306.769C345.688 306.949 344.872 307.425 344.312 307.041C343.496 306.481 343.724 305.689 342.92 305.073C342.488 304.741 342.172 305.157 341.664 304.449C341.156 303.741 341.676 303.465 341.492 302.697C341.364 302.161 340.68 302.361 340.428 301.597C340.188 300.877 340.824 300.781 340.696 300.037C340.592 299.429 339.912 299.189 339.776 298.269C339.54 296.689 340.888 296.829 341.192 296.113C341.496 295.397 339.852 294.641 341.364 293.417C342.752 292.293 343.604 293.529 344.892 293.157L344.896 293.153Z" fill="#E9C5AD" stroke="#4C413E" stroke-width="0.8" stroke-miterlimit="10" stroke-linecap="round"/>
<path d="M367.68 299.849C370.288 300.765 368.776 304.601 374.116 305.837C379.408 307.061 384.428 301.981 384.572 300.357L385.94 284.773C386.084 283.153 385 281.721 383.536 281.589C383.536 281.589 351.42 271.949 350.004 283.629C349.372 288.841 354.756 289.029 356.132 290.773C357.828 292.917 355.556 294.961 359.04 298.477C362.556 302.021 366.28 299.357 367.676 299.845L367.68 299.849Z" fill="#3B7536" stroke="#4C413E" stroke-width="0.8" stroke-miterlimit="10" stroke-linecap="round"/>
<path d="M360.56 287.409C359.244 288.017 358.548 287.633 358.104 286.969C357.66 286.305 357.624 285.617 358.94 285.009C360.256 284.401 362.42 284.105 362.868 284.769C363.316 285.433 361.876 286.801 360.56 287.409Z" stroke="#4D403D" stroke-width="0.4" stroke-miterlimit="10" stroke-linecap="round"/>
<path d="M365.864 292.789C364.82 293.981 364.052 293.897 363.424 293.425C362.796 292.953 362.552 292.269 363.596 291.077C364.64 289.885 366.572 288.637 367.2 289.109C367.828 289.581 366.908 291.597 365.864 292.789Z" stroke="#4D403D" stroke-width="0.4" stroke-miterlimit="10" stroke-linecap="round"/>
<path d="M372.405 296.077C372.073 297.617 371.369 297.857 370.605 297.673C369.841 297.489 369.301 296.953 369.633 295.417C369.965 293.881 371.037 291.917 371.805 292.101C372.573 292.285 372.741 294.541 372.409 296.081L372.405 296.077Z" stroke="#4D403D" stroke-width="0.4" stroke-miterlimit="10" stroke-linecap="round"/>
<path d="M417.556 312.009C416.968 311.597 416.428 311.281 415.952 311.041C415.408 310.769 414.88 311.429 415.272 311.893C415.892 312.629 416.504 313.665 416.912 315.133C417.644 317.773 417.564 319.585 416.776 324.425C416.388 326.789 415.068 330.781 418.124 330.933C422.676 331.165 423.26 322.417 422.016 318.217C421.38 316.073 419.068 313.073 417.556 312.009Z" fill="#3B7536" stroke="#4C413E" stroke-width="0.8" stroke-miterlimit="10" stroke-linecap="round"/>
<path d="M418.528 310.637C417.812 310.545 417.192 310.521 416.656 310.533C416.048 310.545 415.892 311.377 416.452 311.605C417.344 311.965 418.368 312.593 419.416 313.705C421.296 315.697 422.072 317.337 423.636 321.985C424.4 324.257 425.092 328.401 427.868 327.109C432 325.189 428.432 317.181 425.368 314.045C423.804 312.449 420.356 310.873 418.524 310.641L418.528 310.637Z" fill="#3B7536" stroke="#4C413E" stroke-width="0.8" stroke-miterlimit="10" stroke-linecap="round"/>
<path d="M377.32 342.797C356.66 342.797 342.448 333.605 342.448 311.309C342.448 290.301 356.66 279.821 377.32 279.821C397.98 279.821 414.728 293.921 414.728 311.309C414.728 328.697 397.98 342.797 377.32 342.797Z" fill="#64453C" stroke="#4C413E" stroke-width="0.8" stroke-miterlimit="10" stroke-linecap="round"/>
<path d="M386.292 344.085C376.188 345.565 368.792 348.329 368.656 342.301C368.584 339.089 372.54 337.945 372.072 335.841C371.692 334.133 368.756 330.493 368.364 329.253C367.428 326.301 372.376 323.253 372.376 319.985C372.376 317.961 367.82 315.201 367.868 312.029C367.924 308.541 372.8 306.449 372.156 303.541C371.628 301.133 368.628 298.845 368.304 296.257C368.048 294.217 372.364 290.953 372.268 288.133C372.16 284.949 369.016 285.429 367.756 280.653C366.28 275.045 375.924 277.501 387.232 279.093C404.832 281.569 417.548 297.853 417.548 311.757C417.548 327.149 402.204 341.757 386.292 344.085Z" fill="#E9C5AD" stroke="#4C413E" stroke-width="0.8" stroke-miterlimit="10" stroke-linecap="round"/>
<path d="M387.928 293.477C387.928 293.477 383.028 291.729 383.028 287.173C383.028 282.617 387.928 280.957 387.928 280.957C387.928 280.957 392.828 283.629 392.828 287.181C392.828 290.733 387.928 293.477 387.928 293.477Z" fill="#D4944F" stroke="#4C413E" stroke-width="0.8" stroke-miterlimit="10" stroke-linecap="round"/>
<path d="M387.744 280.957L387.228 283.737L387.744 293.477" stroke="#4C413E" stroke-width="0.8" stroke-miterlimit="10" stroke-linecap="round"/>
<path d="M342.04 325.657L331.804 331.909" stroke="#4C413E" stroke-width="1.2" stroke-miterlimit="10" stroke-linecap="round"/>
<path d="M347.328 331.181C348.136 331.013 350.264 331.721 350.68 330.469C351.26 328.721 349.784 328.137 349.56 327.057C349.292 325.753 349.864 324.533 349.296 323.429C348.764 322.401 347.824 321.873 346.728 321.389C345.704 320.937 346.672 317.165 344.716 317.141C342.216 317.109 343.408 318.457 342.06 318.569C341.6 318.609 340.656 318.569 340.34 319.169C339.88 320.045 340.452 320.637 340.028 321.561C339.8 322.057 339.328 321.833 339.208 322.697C339.088 323.557 339.676 323.561 339.876 324.325C340.016 324.861 339.316 325.001 339.448 325.793C339.572 326.541 340.176 326.329 340.412 327.049C340.604 327.633 340.116 328.165 340.42 329.041C340.948 330.549 342.076 329.797 342.676 330.289C343.248 330.757 342.176 332.217 344.084 332.593C345.836 332.937 346.012 331.449 347.328 331.177V331.181Z" fill="#E9C5AD" stroke="#4C413E" stroke-width="0.8" stroke-miterlimit="10" stroke-linecap="round"/>
<path d="M331.696 331.965L326.4 335.697" stroke="#4C413E" stroke-width="1.2" stroke-miterlimit="10" stroke-linecap="round"/>
<path d="M330.8 336.497L331.2 332.097" stroke="#4C413E" stroke-width="1.2" stroke-miterlimit="10" stroke-linecap="round"/>
<path d="M331.696 331.965L326.8 331.697" stroke="#4C413E" stroke-width="1.2" stroke-miterlimit="10" stroke-linecap="round"/>
<path d="M367.132 329.049C369.452 327.541 367.076 324.169 371.972 321.709C376.828 319.269 382.236 323.449 383.424 324.565C386.424 327.381 388.232 329.925 388.632 331.941C389.716 337.361 387.968 341.553 386.848 343.045C381.82 349.773 357.92 359.997 353.78 348.981C351.932 344.065 357.12 342.609 358.048 340.593C359.192 338.109 356.5 336.657 359.056 332.421C361.636 328.145 365.884 329.857 367.124 329.049H367.132Z" fill="#3B7536" stroke="#4C413E" stroke-width="0.8" stroke-miterlimit="10" stroke-linecap="round"/>
<path d="M364.364 342.757C362.94 342.477 362.356 343.013 362.08 343.765C361.804 344.517 361.936 345.193 363.356 345.473C364.78 345.753 366.952 345.529 367.232 344.777C367.512 344.029 365.788 343.037 364.364 342.757Z" stroke="#4D403D" stroke-width="0.4" stroke-miterlimit="10" stroke-linecap="round"/>
<path d="M368.248 336.277C366.952 335.365 366.224 335.629 365.728 336.237C365.232 336.845 365.152 337.565 366.448 338.477C367.744 339.389 369.92 340.145 370.416 339.537C370.912 338.929 369.544 337.189 368.248 336.277Z" stroke="#4D403D" stroke-width="0.4" stroke-miterlimit="10" stroke-linecap="round"/>
<path d="M373.824 331.537C373.14 330.121 372.396 330.053 371.696 330.413C370.996 330.773 370.6 331.417 371.284 332.837C371.968 334.253 373.476 335.905 374.176 335.549C374.876 335.193 374.508 332.957 373.824 331.541V331.537Z" stroke="#4D403D" stroke-width="0.4" stroke-miterlimit="10" stroke-linecap="round"/>
<path d="M395.356 290.433L393.004 297.213" stroke="#4C413E" stroke-width="2" stroke-miterlimit="10" stroke-linecap="round"/>
<path d="M393.42 281.145L394.94 284.393" stroke="#4C413E" stroke-width="2" stroke-miterlimit="10" stroke-linecap="round"/>
</svg>
