<svg width="95" height="83" viewBox="0 0 95 83" fill="none" xmlns="http://www.w3.org/2000/svg">
<path d="M32.9397 69.7429V78.9321" stroke="#4C413E" stroke-width="1.188" stroke-miterlimit="10"/>
<path d="M32.934 78.7092L30.0977 82.5079" stroke="#4C413E" stroke-width="1.188" stroke-miterlimit="10"/>
<path d="M33.0142 78.3738L29.1799 79.4786" stroke="#4C413E" stroke-width="1.188" stroke-miterlimit="10"/>
<path d="M33.0083 78.7598L33.9706 82.5525" stroke="#4C413E" stroke-width="1.188" stroke-miterlimit="10"/>
<path d="M60.2224 69.5139V78.7031" stroke="#4C413E" stroke-width="1.188" stroke-miterlimit="10"/>
<path d="M60.2163 78.7981L63.611 82.3057" stroke="#4C413E" stroke-width="1.188" stroke-miterlimit="10"/>
<path d="M63.7954 79.496L59.6968 78.7981" stroke="#4C413E" stroke-width="1.188" stroke-miterlimit="10"/>
<path d="M60.2167 78.7981L59.3613 82.3502" stroke="#4C413E" stroke-width="1.188" stroke-miterlimit="10"/>
<path d="M45.9516 8.88739C46.0199 9.43387 46.0407 9.91204 46.0318 10.3219C46.0229 10.7882 45.3873 10.91 45.2121 10.4763C44.9359 9.79324 44.4547 9.00619 43.6053 8.20429C42.0787 6.76384 40.8254 6.16984 37.2644 4.97293C35.5239 4.38784 32.349 3.85621 33.338 1.72969C34.8111 -1.43633 40.9442 1.29904 43.344 3.64534C44.5676 4.84225 45.7734 7.48258 45.9516 8.88739Z" fill="#3B7536" stroke="#4C413E" stroke-width="0.594" stroke-miterlimit="10"/>
<path d="M46.1151 8.98846C46.0468 9.53494 46.026 10.0131 46.0349 10.423C46.0438 10.8893 46.6794 11.011 46.8546 10.5774C47.1308 9.89431 47.612 9.10726 48.4614 8.30536C49.988 6.86491 51.2413 6.27091 54.8023 5.074C56.5428 4.48891 59.7177 3.95728 58.7287 1.83076C57.2556 -1.33526 51.1225 1.40011 48.7228 3.74641C47.4991 4.94332 46.2933 7.58365 46.1151 8.98846Z" fill="#3B7536" stroke="#4C413E" stroke-width="0.594" stroke-miterlimit="10"/>
<path d="M5.9158 34.9136C7.21666 36.5857 4.65058 38.4301 7.579 41.4417C10.4807 44.4235 15.8207 43.2355 16.584 42.2495L23.9288 32.7811C24.6921 31.7951 24.5912 30.4259 23.7002 29.7339C23.7002 29.7339 7.01172 10.2062 1.25587 17.1411C-1.31318 20.2359 2.07559 22.5911 2.24191 24.284C2.44684 26.3689 0.133206 26.7431 0.920256 30.4527C1.71325 34.1949 5.22082 34.0226 5.9158 34.9166V34.9136Z" fill="#3B7536" stroke="#4C413E" stroke-width="0.594" stroke-miterlimit="10"/>
<path d="M6.48933 23.9482C5.39043 23.7938 5.10234 23.2592 5.08749 22.6474C5.07264 22.0356 5.33994 21.5782 6.43884 21.7326C7.53774 21.8871 9.05541 22.5939 9.07026 23.2057C9.08511 23.8176 7.58823 24.1027 6.48933 23.9482Z" stroke="#4D403D" stroke-width="0.297" stroke-miterlimit="10"/>
<path d="M7.67428 29.6121C6.50707 29.9477 6.04672 29.5735 5.83882 29.0092C5.63092 28.4449 5.75566 27.9014 6.92287 27.5658C8.09008 27.2302 9.85426 27.2272 10.0622 27.7915C10.2701 28.3558 8.84149 29.2735 7.67428 29.6091V29.6121Z" stroke="#4D403D" stroke-width="0.297" stroke-miterlimit="10"/>
<path d="M10.5223 34.4413C9.66994 35.2967 9.11752 35.1571 8.69875 34.7235C8.27998 34.2869 8.15821 33.7196 9.00763 32.8672C9.86002 32.0119 11.3628 31.1951 11.7816 31.6317C12.2004 32.0683 11.3718 33.5889 10.5194 34.4443L10.5223 34.4413Z" stroke="#4D403D" stroke-width="0.297" stroke-miterlimit="10"/>
<path d="M74.6505 54.9522C72.7171 54.0909 71.538 57.0223 67.9146 54.9017C64.3238 52.799 64.1991 47.3282 64.9743 46.3511L72.4082 36.951C73.1804 35.9739 74.5377 35.7452 75.4198 36.4432C75.4198 36.4432 98.3779 47.9638 93.0229 55.2165C90.6321 58.4538 87.5374 55.7274 85.8504 55.9709C83.7773 56.2739 83.9674 58.6053 80.1777 58.73C76.3553 58.8548 75.6811 55.4126 74.6476 54.9492L74.6505 54.9522Z" fill="#3B7536" stroke="#4C413E" stroke-width="0.594" stroke-miterlimit="10"/>
<path d="M85.1584 51.7652C85.5712 52.7958 86.1593 52.9472 86.7592 52.8136C87.3562 52.6799 87.7364 52.3117 87.3235 51.2811C86.9107 50.2505 85.8593 48.9466 85.2623 49.0803C84.6654 49.2139 84.7456 50.7346 85.1614 51.7652H85.1584Z" stroke="#4D403D" stroke-width="0.297" stroke-miterlimit="10"/>
<path d="M79.3758 51.9731C79.3283 53.1849 79.8035 53.5443 80.4005 53.6096C80.9975 53.6749 81.4934 53.4225 81.541 52.2107C81.5885 50.999 81.1667 49.2853 80.5698 49.2199C79.9728 49.1546 79.4234 50.7614 79.3788 51.9731H79.3758Z" stroke="#4D403D" stroke-width="0.297" stroke-miterlimit="10"/>
<path d="M74.0034 50.3667C73.3767 51.3973 73.644 51.9022 74.1667 52.2021C74.6895 52.5021 75.2716 52.4873 75.8953 51.4567C76.519 50.4261 76.9526 48.7688 76.4299 48.4659C75.9072 48.1629 74.6271 49.3331 74.0004 50.3637L74.0034 50.3667Z" stroke="#4D403D" stroke-width="0.297" stroke-miterlimit="10"/>
<path d="M74.303 41.5604C74.303 57.3875 66.1236 68.2755 46.287 68.2755C27.5968 68.2755 18.271 57.3875 18.271 41.5604C18.271 25.7332 30.8133 12.9028 46.287 12.9028C61.7607 12.9028 74.303 25.7332 74.303 41.5604Z" fill="#64453C" stroke="#4C413E" stroke-width="0.594" stroke-miterlimit="10"/>
<path d="M75.4498 34.2036C76.7655 42.2048 79.2247 48.0646 73.8638 48.1686C71.0067 48.225 69.988 45.0946 68.1169 45.4629C66.5992 45.7629 63.3589 48.0884 62.2571 48.4002C59.6316 49.1398 56.917 45.2223 54.0123 45.2223C52.2095 45.2223 49.7563 48.8309 46.9348 48.7923C43.8312 48.7477 41.972 44.8867 39.3821 45.3946C37.2407 45.8134 35.2063 48.1864 32.9016 48.4478C31.0869 48.6527 28.1852 45.2342 25.6726 45.3114C22.8392 45.3976 23.2669 47.8864 19.0168 48.8843C14.0272 50.0545 16.2132 42.4187 17.6298 33.4611C19.8306 19.5229 34.3183 9.45166 46.6883 9.45166C60.38 9.45166 73.3797 21.6019 75.4498 34.2036Z" fill="#E9C5AD" stroke="#4C413E" stroke-width="0.594" stroke-miterlimit="10"/>
<path d="M28.087 65.7095C28.2147 65.0887 27.6712 63.4612 28.6305 63.1434C29.97 62.7008 30.4155 63.8294 31.2441 64.0017C32.242 64.2096 33.1776 63.7671 34.021 64.2037C34.8081 64.6106 35.212 65.3293 35.5833 66.1728C35.9308 66.9569 38.8176 66.2144 38.8384 67.7142C38.8622 69.6269 37.8316 68.7151 37.7454 69.7487C37.7157 70.1021 37.7454 70.8238 37.2851 71.0673C36.6139 71.4208 36.1594 70.9812 35.4526 71.3049C35.0724 71.4802 35.2417 71.8425 34.5824 71.9316C33.923 72.0237 33.9201 71.5722 33.335 71.4208C32.9251 71.3138 32.8152 71.8484 32.2093 71.7475C31.6361 71.6524 31.7995 71.1891 31.2471 71.0079C30.7986 70.8624 30.3947 71.2366 29.7205 70.999C28.5652 70.5951 29.1413 69.7308 28.7641 69.2705C28.4048 68.8309 27.2881 69.6536 27 68.1924C26.7356 66.8499 27.8761 66.7133 28.084 65.7065L28.087 65.7095Z" fill="#E9C5AD" stroke="#4C413E" stroke-width="0.594" stroke-miterlimit="10"/>
<path d="M65.8031 65.7095C65.6754 65.0887 66.2189 63.4612 65.2596 63.1434C63.9201 62.7008 63.4746 63.8294 62.646 64.0017C61.648 64.2096 60.7125 63.7671 59.869 64.2037C59.082 64.6106 58.678 65.3293 58.3068 66.1728C57.9593 66.9569 55.0725 66.2144 55.0517 67.7142C55.0279 69.6269 56.0585 68.7151 56.1446 69.7487C56.1743 70.1021 56.1446 70.8238 56.605 71.0673C57.2762 71.4208 57.7306 70.9812 58.4375 71.3049C58.8176 71.4802 58.6483 71.8425 59.3077 71.9316C59.967 72.0237 59.97 71.5722 60.5551 71.4208C60.9649 71.3138 61.0748 71.8484 61.6807 71.7475C62.2539 71.6524 62.0906 71.1891 62.643 71.0079C63.0915 70.8624 63.4954 71.2366 64.1696 70.999C65.3249 70.5951 64.7487 69.7308 65.1259 69.2705C65.4853 68.8309 66.602 69.6536 66.8901 68.1924C67.1544 66.8499 66.0139 66.7133 65.806 65.7065L65.8031 65.7095Z" fill="#E9C5AD" stroke="#4C413E" stroke-width="0.594" stroke-miterlimit="10"/>
<path d="M36.1925 31.2955C38.8455 31.0377 40.8188 29.0036 40.6 26.7523C40.3813 24.5009 38.0533 22.8848 35.4003 23.1426C32.7473 23.4004 30.774 25.4345 30.9928 27.6858C31.2115 29.9372 33.5395 31.5533 36.1925 31.2955Z" fill="white" stroke="#4C413E" stroke-width="0.594" stroke-miterlimit="10"/>
<path d="M61.5938 27.528C61.741 25.2709 59.704 23.3005 57.0442 23.1271C54.3844 22.9537 52.1089 24.6429 51.9618 26.9001C51.8146 29.1573 53.8515 31.1276 56.5113 31.301C59.1712 31.4744 61.4467 29.7852 61.5938 27.528Z" fill="white" stroke="#4C413E" stroke-width="0.594" stroke-miterlimit="10"/>
<path d="M36.8067 30.6121C38.9547 30.3822 40.5297 28.6423 40.3245 26.7259C40.1194 24.8095 38.2118 23.4424 36.0638 23.6723C33.9158 23.9022 32.3409 25.6422 32.546 27.5585C32.7511 29.4749 34.6587 30.8421 36.8067 30.6121Z" fill="#231815"/>
<path d="M60.0014 27.636C60.2326 25.7226 58.6959 23.9631 56.5692 23.7061C54.4425 23.4492 52.531 24.792 52.2997 26.7054C52.0685 28.6188 53.6052 30.3783 55.7319 30.6352C57.8587 30.8922 59.7702 29.5494 60.0014 27.636Z" fill="#231815"/>
<path d="M52.8032 33.2949C52.8032 33.2949 50.9559 37.0489 46.1474 37.0489C41.339 37.0489 39.5837 33.2949 39.5837 33.2949C39.5837 33.2949 42.4052 29.5408 46.1534 29.5408C49.9015 29.5408 52.8032 33.2949 52.8032 33.2949Z" fill="#D4944F" stroke="#4C413E" stroke-width="0.594" stroke-miterlimit="10"/>
<path d="M39.5837 33.2949C39.5837 33.2949 45.7376 32.3267 46.7682 32.3267C47.7988 32.3267 52.6013 33.4345 52.6013 33.4345" stroke="#4C413E" stroke-width="0.594" stroke-miterlimit="10"/>
<path d="M36.7119 20.0369C36.7119 20.0369 38.7315 22.104 40.1215 22.2911" stroke="#4C413E" stroke-width="0.594" stroke-miterlimit="10"/>
<path d="M55.1171 20.512C55.1171 20.512 53.0975 22.5791 51.7075 22.7662" stroke="#4C413E" stroke-width="0.594" stroke-miterlimit="10"/>
<path d="M19.6344 10.2385C20.1749 11.4622 21.152 12.4393 22.3757 12.9798C21.152 13.5204 20.1749 14.4975 19.6344 15.7211C19.0938 14.4975 18.1167 13.5204 16.8931 12.9798C18.1167 12.4393 19.0938 11.4622 19.6344 10.2385Z" fill="#F5EA8E" stroke="#4C413E" stroke-width="0.594" stroke-miterlimit="10"/>
<path d="M23.1984 4.29883C23.638 5.29378 24.431 6.08677 25.4259 6.52633C24.431 6.96589 23.638 7.75888 23.1984 8.75383C22.7589 7.75888 21.9659 6.96589 20.9709 6.52633C21.9659 6.08677 22.7589 5.29378 23.1984 4.29883Z" fill="#F5EA8E" stroke="#4C413E" stroke-width="0.594" stroke-miterlimit="10"/>
</svg>
