<svg width="133" height="40" viewBox="0 0 133 40" fill="none" xmlns="http://www.w3.org/2000/svg">
<path d="M57.431 13.6852C56.884 11.1627 54.6328 9.26702 51.947 9.26702H42.6811C39.5855 9.26702 37.0674 11.7838 37.0674 14.8779V18.5283H29.7611V10.2425C29.7611 8.88407 29.4961 7.58852 29.0138 6.40156C27.4889 2.65208 23.8043 0 19.5135 0H14.8815C14.3382 0 13.8998 0.438202 13.8998 0.981192V4.1915C12.0432 1.65183 9.04097 0 5.66133 0H0.981678C0.440326 0 0 0.438202 0 0.981192V28.7651C0 29.3062 0.440326 29.7463 0.981678 29.7463H27.8015V33.4005C27.8015 36.2527 29.9421 38.6171 32.7023 38.9676C32.9348 38.9981 33.1731 39.0133 33.4152 39.0133H42.6811C45.7767 39.0133 48.2948 36.4946 48.2948 33.4005V29.7501H56.5809C57.1222 29.7501 57.5607 29.3119 57.5607 28.7708V19.4829V14.8779C57.5607 14.4683 57.5168 14.0701 57.431 13.6852ZM55.5992 18.5036H50.0237V18.2902C50.0237 17.5033 49.387 16.867 48.6017 16.867H46.0131C45.2277 16.867 44.5892 17.5033 44.5892 18.2902V20.8775C44.5892 21.6624 45.2277 22.2988 46.0131 22.2988H48.6017C49.387 22.2988 50.0237 21.6624 50.0237 20.8775V20.464H55.5992V27.7896H47.3131C46.7717 27.7896 46.3333 28.2297 46.3333 28.7708V33.4005C46.3333 35.4144 44.6959 37.0529 42.6811 37.0529H33.4152C32.7919 37.0529 32.2067 36.8966 31.6939 36.6204C30.5445 36.005 29.763 34.7933 29.763 33.4005V29.7501H35.3233V30.1636C35.3233 30.9485 35.9599 31.5868 36.7472 31.5868H39.3338C40.1211 31.5868 40.7578 30.9485 40.7578 30.1636V27.5763C40.7578 26.7913 40.1211 26.155 39.3338 26.155H36.7472C35.9599 26.155 35.3233 26.7913 35.3233 27.5763V27.7896H28.8327C28.8156 27.7896 28.7984 27.7858 28.7794 27.7858H20.4952V14.8722C20.4952 14.3311 20.0548 13.8929 19.5135 13.8929C18.9721 13.8929 18.5337 14.3311 18.5337 14.8722V27.7858H11.2293V14.8722C11.2293 14.3311 10.7889 13.8929 10.2476 13.8929C9.70622 13.8929 9.26781 14.3311 9.26781 14.8722V27.7858H1.96145V1.96048H5.66133C7.71046 1.96048 9.58995 2.71304 11.0329 3.95525C12.7866 5.468 13.8998 7.70474 13.8998 10.1949V10.2425C13.8998 10.7836 14.3382 11.2218 14.8815 11.2218C15.4247 11.2218 15.8613 10.7836 15.8613 10.2425V1.96048H19.5135C21.5702 1.96048 23.4554 2.71304 24.906 3.95906C26.6769 5.47943 27.7996 7.73332 27.7996 10.2425V19.5095C27.8015 20.0506 28.2399 20.4888 28.7813 20.4888H38.0472C38.5885 20.4888 39.0289 20.0506 39.0289 19.5095V14.8779C39.0289 12.866 40.6663 11.2275 42.6811 11.2275H51.947C53.226 11.2275 54.3526 11.8867 55.0045 12.8851C55.38 13.4585 55.5992 14.1425 55.5992 14.8779V18.5036ZM48.3615 19.0675V20.0982C48.3615 20.3955 48.1194 20.6374 47.822 20.6374H46.7908C46.4934 20.6374 46.2513 20.3955 46.2513 20.0982V19.0675C46.2513 18.7703 46.4934 18.5283 46.7908 18.5283H47.822C48.1194 18.5283 48.3615 18.7703 48.3615 19.0675ZM36.9854 29.3862V28.3555C36.9854 28.0583 37.2275 27.8163 37.5249 27.8163H38.5561C38.8535 27.8163 39.0956 28.0583 39.0956 28.3555V29.3862C39.0956 29.6834 38.8535 29.9254 38.5561 29.9254H37.5249C37.2275 29.9254 36.9854 29.6834 36.9854 29.3862Z" fill="white"/>
<path d="M67.5411 10.735C67.1942 10.2241 66.1837 8.85718 65.77 8.34626C65.7415 8.31194 65.73 8.27382 65.73 8.23187V7.69045C65.73 7.58941 65.812 7.50552 65.9149 7.50552H67.1541C67.2571 7.50552 67.339 7.42355 67.339 7.3206V6.11001C67.339 6.00706 67.2571 5.92509 67.1541 5.92509H65.9149C65.812 5.92509 65.73 5.8412 65.73 5.74016V3.16075C65.73 3.05971 65.6461 2.97583 65.5451 2.97583H64.304C64.2011 2.97583 64.1191 3.05971 64.1191 3.16075V5.74016C64.1191 5.8412 64.0352 5.92509 63.9341 5.92509H62.4204C62.3175 5.92509 62.2355 6.00706 62.2355 6.11001V7.3206C62.2355 7.42355 62.3175 7.50552 62.4204 7.50552H63.7225C63.8445 7.50552 63.9342 7.618 63.9037 7.7362C63.4976 9.34142 62.7445 11.1297 61.9343 12.2392C61.8905 12.3002 61.8866 12.3784 61.9286 12.4432C62.1326 12.7673 62.3747 13.2039 62.5425 13.5947C62.6016 13.7338 62.7884 13.7491 62.8704 13.6214C63.1906 13.1238 63.49 12.5156 63.7626 11.8484C63.8407 11.6616 64.1191 11.7149 64.1191 11.917V16.2084C64.1191 16.3113 64.2011 16.3933 64.304 16.3933H65.5451C65.6461 16.3933 65.73 16.3113 65.73 16.2084V11.082C65.73 10.8894 65.9874 10.8246 66.077 10.9943C66.2428 11.307 66.3973 11.6101 66.5212 11.8694C66.5803 11.9952 66.7519 12.0123 66.8357 11.898L67.5373 10.9466C67.5831 10.8837 67.5869 10.7998 67.5411 10.735ZM70.6334 3.62783L69.2302 3.34377C69.1311 3.3228 69.0358 3.38762 69.0148 3.48676C68.6221 5.37031 67.9319 7.22146 67.0054 8.44158C66.9387 8.52737 66.9578 8.64557 67.0474 8.70467C67.4039 8.93916 67.8805 9.32045 68.1817 9.6026C68.2637 9.67886 68.3933 9.66742 68.4581 9.57591C69.4514 8.15752 70.275 6.01469 70.7783 3.85279C70.8011 3.75175 70.7363 3.6488 70.6334 3.62783ZM75.5768 15.4554C75.1878 14.2772 74.3166 12.6052 73.5235 11.2593C73.474 11.1773 73.371 11.1468 73.2852 11.1888L72.1356 11.7359C72.0384 11.7817 72.0003 11.898 72.0518 11.9914C72.3396 12.5023 72.6313 13.0552 72.902 13.6137C72.9592 13.7319 72.8772 13.8711 72.7457 13.8787C71.9927 13.9245 71.2453 13.9702 70.5285 14.016C70.3913 14.0255 70.294 13.8883 70.3493 13.7605C70.9365 12.3841 71.5504 10.6988 72.0632 9.18128C72.0994 9.07643 72.0346 8.96585 71.9278 8.94297L70.3264 8.58266C70.2273 8.55978 70.1282 8.62269 70.1072 8.72373C69.7602 10.3728 69.1444 12.4813 68.5344 14.0122C68.5077 14.0808 68.441 14.1247 68.3704 14.1285C67.9567 14.1495 67.5754 14.1704 67.2304 14.1857C67.1198 14.1895 67.0397 14.2905 67.0588 14.4011L67.2838 15.7528C67.299 15.8481 67.381 15.9148 67.4763 15.9072C69.1502 15.7947 71.3712 15.6193 73.5273 15.4287C73.6112 15.421 73.6894 15.4706 73.718 15.5488C73.8057 15.7852 73.8819 16.0082 73.9391 16.2141C73.9715 16.3285 74.0974 16.3857 74.2022 16.3323L75.4833 15.6746C75.5634 15.6327 75.6053 15.5411 75.5768 15.4554ZM75.5348 8.07936C74.7189 6.90309 73.8857 5.07482 73.4435 3.43337C73.4149 3.33233 73.3119 3.27514 73.2109 3.30755L72.0098 3.68502C71.9164 3.71553 71.8611 3.81276 71.8859 3.90998C72.4083 5.85836 73.2299 7.96688 74.1012 9.39671C74.1679 9.50347 74.3204 9.513 74.4005 9.41386C74.7055 9.03639 75.1383 8.60172 75.4986 8.3272C75.5748 8.2681 75.5901 8.15943 75.5348 8.07936Z" fill="white"/>
<path d="M88.146 8.27919C87.7799 8.31541 87.3338 8.32495 87.0688 8.32495H82.0988C81.9672 8.32495 81.8776 8.1915 81.9291 8.06948C82.0282 7.82737 82.1197 7.59669 82.1941 7.40604C82.2608 7.20396 82.3466 6.99997 82.4419 6.76358C82.4839 6.65682 82.4209 6.5348 82.3066 6.51193L80.709 6.18021C80.6041 6.15924 80.5031 6.22977 80.4878 6.33653C80.4516 6.60725 80.3906 6.92562 80.3086 7.19062C80.1504 7.76445 79.9063 8.41264 79.5041 9.03033C79.0389 9.76049 78.3679 10.6241 77.5309 11.3066C77.4299 11.3905 77.4394 11.5449 77.5519 11.6116L78.8826 12.3837C78.9531 12.4257 79.0408 12.4181 79.0999 12.3628C79.6623 11.8347 80.4039 10.8739 80.932 10.0484C80.9663 9.99689 81.0235 9.96448 81.0864 9.96448H83.2922C83.4047 9.96448 83.4924 10.0636 83.479 10.1742C83.214 12.3494 82.2856 13.663 81.1284 14.6105C80.8615 14.8221 80.4745 15.0585 80.1275 15.2339C79.9998 15.2987 79.9883 15.476 80.1065 15.5542L81.5173 16.4978C81.5783 16.5398 81.6603 16.5398 81.7232 16.5016C83.9118 15.1176 85.0308 13.0472 85.2997 10.1342C85.3073 10.0388 85.3874 9.96448 85.4827 9.96448H87.0688C87.3129 9.96639 87.7513 9.96448 88.1517 9.99308C88.2584 9.9988 88.3481 9.91491 88.3481 9.80625V8.46221C88.3481 8.35354 88.2546 8.26775 88.146 8.27919Z" fill="white"/>
<path d="M95.7793 5.42143H94.99C94.8871 5.42143 94.8032 5.50531 94.8032 5.60826V11.8633C94.8032 11.9662 94.7193 12.0501 94.6145 12.0501H94.4295C94.3266 12.0501 94.2427 11.9662 94.2427 11.8633V3.50927C94.2427 3.40442 94.1588 3.32054 94.054 3.32054H93.0931C92.9883 3.32054 92.9044 3.40442 92.9044 3.50927V11.8633C92.9044 11.9662 92.8205 12.0501 92.7176 12.0501H92.5593C92.4564 12.0501 92.3725 11.9662 92.3725 11.8633V5.60826C92.3725 5.50531 92.2886 5.42143 92.1857 5.42143H91.3526C91.2477 5.42143 91.1638 5.50531 91.1638 5.60826V14.4942C91.1638 14.5971 91.2477 14.6829 91.3526 14.6829H92.1857C92.2886 14.6829 92.3725 14.5971 92.3725 14.4942V13.6039C92.3725 13.5009 92.4564 13.417 92.5593 13.417H94.6145C94.7193 13.417 94.8032 13.5009 94.8032 13.6039V14.1357C94.8032 14.2387 94.8871 14.3226 94.99 14.3226H95.7793C95.8842 14.3226 95.968 14.2387 95.968 14.1357V5.60826C95.968 5.50531 95.8842 5.42143 95.7793 5.42143ZM104.049 8.1095H103.462C103.3 8.1095 103.214 7.91886 103.323 7.79685L103.752 7.31833C103.832 7.22873 103.809 7.08956 103.702 7.03046C102.925 6.59579 101.672 6.02958 100.685 5.60826L100.742 5.40618H103.632C103.735 5.40618 103.819 5.32229 103.819 5.21935V4.24134C103.819 4.1384 103.735 4.05451 103.632 4.05451H101.159C101.051 4.05451 100.967 3.96491 100.972 3.85624C100.988 3.64272 100.999 3.41776 101.007 3.18709C101.012 3.08033 100.927 2.99072 100.82 2.99072H99.6436C99.5426 2.99072 99.4587 3.07079 99.4549 3.17183C99.4454 3.42348 99.4339 3.66369 99.4187 3.88293C99.4111 3.98016 99.3291 4.05451 99.2319 4.05451H96.6448C96.54 4.05451 96.4561 4.1384 96.4561 4.24134V5.21935C96.4561 5.32229 96.54 5.40618 96.6448 5.40618H98.7819C98.9306 5.40618 99.0241 5.57204 98.9421 5.69596C98.536 6.30983 97.8154 6.70827 96.5114 6.98471C96.3779 7.0114 96.3188 7.17344 96.4027 7.2802C96.5343 7.44606 96.6658 7.64433 96.7706 7.83688C96.8393 7.9589 96.7459 8.1095 96.6048 8.1095H96.2559C96.153 8.1095 96.0691 8.19339 96.0691 8.29824V9.33153C96.0691 9.43448 96.153 9.52027 96.2559 9.52027H101.575C101.68 9.52027 101.764 9.60415 101.764 9.7071V14.6524C101.764 14.8392 101.691 14.8983 101.476 14.8983C101.26 14.8983 100.669 14.8983 100.029 14.8793C99.8896 14.8754 99.7962 15.0184 99.8534 15.1443C100.015 15.4969 100.185 15.9183 100.265 16.2576C100.286 16.3434 100.362 16.4082 100.452 16.4082C101.422 16.4044 102.135 16.3663 102.654 16.1337C103.216 15.8897 103.375 15.4722 103.375 14.6829V9.7071C103.375 9.60415 103.458 9.52027 103.561 9.52027H104.049C104.152 9.52027 104.236 9.43448 104.236 9.33153V8.29824C104.236 8.19339 104.152 8.1095 104.049 8.1095ZM101.779 8.1095H98.7305C98.5265 8.1095 98.4712 7.83116 98.658 7.75109C99.188 7.52232 99.5979 7.24779 99.9163 6.91798C99.9715 6.85888 100.059 6.83982 100.132 6.87604C100.717 7.16582 101.331 7.47466 101.868 7.75681C102.042 7.84832 101.975 8.1095 101.779 8.1095ZM100.656 10.3095H97.0318C96.9289 10.3095 96.845 10.3934 96.845 10.4983V14.3931C96.845 14.498 96.9289 14.5819 97.0318 14.5819H98.0232C98.128 14.5819 98.2119 14.498 98.2119 14.3931V14.0214C98.2119 13.9184 98.2958 13.8345 98.3987 13.8345H100.656C100.759 13.8345 100.843 13.7487 100.843 13.6458V10.4983C100.843 10.3934 100.759 10.3095 100.656 10.3095ZM99.4625 12.4524C99.4625 12.5553 99.3786 12.6392 99.2738 12.6392H98.3987C98.2958 12.6392 98.2119 12.5553 98.2119 12.4524V11.6917C98.2119 11.5887 98.2958 11.503 98.3987 11.503H99.2738C99.3786 11.503 99.4625 11.5887 99.4625 11.6917V12.4524Z" fill="white"/>
<path d="M118.54 9.28555C117.606 8.96717 116.798 8.52297 116.106 7.96248C116.024 7.89576 116.018 7.77375 116.091 7.69558C116.926 6.81862 117.736 5.68429 118.308 4.63003C118.353 4.54806 118.327 4.44511 118.249 4.39364L117.278 3.73782L116.973 3.83124C116.956 3.83696 116.939 3.83886 116.92 3.83886H114.037C113.936 3.83886 113.856 3.92084 113.856 4.01997V4.9751C113.618 4.44702 113.404 3.88462 113.238 3.28409C113.212 3.19258 113.122 3.13539 113.029 3.15445L111.917 3.38322C111.814 3.40419 111.751 3.50714 111.78 3.61009C111.83 3.7912 111.875 3.97041 111.929 4.14008L111.094 3.79501L110.806 3.85221H109.662C109.525 3.85221 109.437 3.70732 109.504 3.58531C109.521 3.5529 109.538 3.52049 109.555 3.48617C109.614 3.37751 109.548 3.24215 109.426 3.22118L108.207 3.01338C108.127 3.00003 108.051 3.03816 108.017 3.1106C107.47 4.21824 106.507 5.43455 105.108 6.37633C105.006 6.44305 104.997 6.58604 105.088 6.6642C105.348 6.88535 105.645 7.20372 105.845 7.47444C105.904 7.55451 106.017 7.56976 106.097 7.51066C106.166 7.46109 106.232 7.40962 106.299 7.36005C106.364 7.31048 106.452 7.30858 106.516 7.35814C106.848 7.60598 107.187 7.89004 107.475 8.1455C107.561 8.22176 107.553 8.36283 107.46 8.42956C106.789 8.90426 106.051 9.28555 105.26 9.56198C105.14 9.60392 105.098 9.74881 105.178 9.84604C105.418 10.1358 105.66 10.5285 105.828 10.8431C105.872 10.9251 105.971 10.9594 106.057 10.9251C107.235 10.458 108.329 9.82698 109.254 8.98624V9.43806C109.254 9.5391 109.334 9.61917 109.435 9.61917H114.493C114.594 9.61917 114.674 9.5391 114.674 9.43806V8.9443C115.475 9.7164 116.447 10.3169 117.602 10.7573C117.688 10.7897 117.783 10.7535 117.829 10.6734C118.027 10.3246 118.336 9.88989 118.618 9.57723C118.706 9.48001 118.664 9.32749 118.54 9.28555ZM108.959 7.06455C108.863 7.17703 108.766 7.28189 108.667 7.38674C108.6 7.45346 108.495 7.45918 108.421 7.40008C108.133 7.16559 107.79 6.90441 107.451 6.66801C107.357 6.60129 107.348 6.46974 107.43 6.38777C107.515 6.30198 107.599 6.21619 107.683 6.1304C107.742 6.06749 107.838 6.05605 107.91 6.10371C108.266 6.33057 108.633 6.58604 108.926 6.80146C109.01 6.86247 109.025 6.98639 108.959 7.06455ZM110.108 5.242C110.022 5.44027 109.929 5.63473 109.826 5.82156C109.776 5.91497 109.652 5.94166 109.565 5.88066C109.231 5.65379 108.831 5.41358 108.463 5.20387L108.621 4.98844H109.942C110.072 4.98844 110.161 5.1238 110.108 5.242ZM113.545 8.09593H110.501C110.348 8.09593 110.266 7.92054 110.362 7.79853C110.993 6.99973 111.502 6.05986 111.879 4.97891C111.934 4.82068 112.161 4.81877 112.219 4.977C112.607 6.0427 113.088 6.98639 113.69 7.80425C113.778 7.92626 113.696 8.09593 113.545 8.09593ZM115.848 5.50127C115.612 5.86731 115.345 6.23525 115.067 6.57079C114.992 6.66039 114.851 6.65657 114.781 6.56125C114.535 6.22572 114.312 5.8635 114.108 5.48602C114.043 5.36592 114.135 5.21912 114.27 5.21912H115.698C115.843 5.21912 115.928 5.37926 115.848 5.50127ZM109.243 13.066L107.891 12.6904C107.813 12.6695 107.731 12.7019 107.689 12.7724C107.189 13.6055 106.356 14.4043 105.466 14.9572C105.355 15.0258 105.346 15.1802 105.453 15.2565C105.803 15.512 106.249 15.8608 106.532 16.1201C106.595 16.1773 106.69 16.1849 106.76 16.1354C107.702 15.4643 108.697 14.431 109.351 13.3329C109.412 13.23 109.357 13.0965 109.243 13.066ZM117.196 10.7707H106.631C106.53 10.7707 106.45 10.8507 106.45 10.9518V12.128C106.45 12.2272 106.53 12.3092 106.631 12.3092H110.869C110.97 12.3092 111.052 12.3911 111.052 12.4903V14.696C111.052 14.8695 110.993 14.9114 110.749 14.9114C110.564 14.9248 109.923 14.9267 109.302 14.9076C109.164 14.9038 109.075 15.0449 109.132 15.1669C109.298 15.5101 109.456 15.9219 109.54 16.2688C109.559 16.3508 109.631 16.408 109.715 16.4099C110.693 16.4194 111.439 16.3966 111.999 16.1773C112.604 15.9466 112.777 15.5444 112.777 14.7532V12.4903C112.777 12.3911 112.857 12.3092 112.958 12.3092H117.196C117.297 12.3092 117.379 12.2272 117.379 12.128V10.9518C117.379 10.8507 117.297 10.7707 117.196 10.7707ZM118.128 15.1841C117.511 14.4329 116.415 13.4378 115.519 12.7286C115.459 12.6828 115.379 12.679 115.316 12.7152L114.222 13.3463C114.114 13.4073 114.098 13.556 114.194 13.6379C115.088 14.41 116.113 15.4205 116.649 16.1411C116.704 16.2173 116.809 16.2383 116.889 16.1888L118.083 15.451C118.174 15.3938 118.199 15.2679 118.128 15.1841Z" fill="white"/>
<path d="M74.896 35.1522C73.0296 34.9082 71.6341 34.3611 70.6694 33.4688C70.5417 33.3526 70.6256 33.139 70.799 33.139H74.8731C74.9779 33.139 75.0618 33.0532 75.0618 32.9503V31.8465C75.0618 31.7416 74.9779 31.6577 74.8731 31.6577H69.6132C69.4931 31.6577 69.4073 31.5491 69.4283 31.4309C69.4569 31.2631 69.4741 31.0953 69.4874 30.9295C69.4931 30.8284 69.5751 30.7522 69.6742 30.7522H73.2336C73.3384 30.7522 73.4223 30.6664 73.4223 30.5615V29.5607C73.4223 29.4558 73.3384 29.37 73.2336 29.37H69.7009C69.5961 29.37 69.5122 29.2861 69.5122 29.1813V28.697C69.5122 28.5922 69.5961 28.5083 69.7009 28.5083H73.5214C73.6263 28.5083 73.7102 28.4225 73.7102 28.3196V27.7476C73.7102 27.6428 73.796 27.5589 73.8989 27.5589H74.6729C74.7759 27.5589 74.8617 27.475 74.8617 27.3702V24.684C74.8617 24.581 74.7759 24.4953 74.6729 24.4953H69.7867C69.6819 24.4953 69.598 24.4114 69.598 24.3065V23.4334C69.598 23.3285 69.5122 23.2446 69.4092 23.2446H68.0328C67.9279 23.2446 67.8441 23.3285 67.8441 23.4334V24.3065C67.8441 24.4114 67.7583 24.4953 67.6534 24.4953H62.7825C62.6795 24.4953 62.5937 24.581 62.5937 24.684V27.3702C62.5937 27.475 62.6795 27.5589 62.7825 27.5589H63.6842C63.7891 27.5589 63.8749 27.6428 63.8749 27.7476V28.3196C63.8749 28.4225 63.9588 28.5083 64.0636 28.5083H67.6115C67.7163 28.5083 67.8002 28.5922 67.8002 28.697V29.1813C67.8002 29.2861 67.7163 29.37 67.6115 29.37H64.2924C64.1894 29.37 64.1036 29.4558 64.1036 29.5607V30.5615C64.1036 30.6664 64.1894 30.7522 64.2924 30.7522H67.5734C67.6877 30.7522 67.7773 30.8494 67.764 30.9619C67.7411 31.143 67.7125 31.326 67.6763 31.5071C67.6572 31.5948 67.5772 31.6577 67.4876 31.6577H62.6681C62.5632 31.6577 62.4794 31.7416 62.4794 31.8465V32.9503C62.4794 33.0532 62.5632 33.139 62.6681 33.139H66.3361C66.5096 33.139 66.5954 33.3545 66.4638 33.4688C65.6784 34.1437 64.4544 34.7404 62.5442 35.2056C62.4031 35.2399 62.3497 35.4096 62.445 35.5164C62.731 35.8347 63.0341 36.2408 63.2152 36.5401C63.2591 36.6126 63.3487 36.645 63.4288 36.6221C66.1016 35.8805 67.6382 34.8453 68.5056 33.6786C68.5838 33.5718 68.7401 33.5756 68.8144 33.6843C69.9297 35.2952 71.5692 36.2427 74.101 36.6678C74.1849 36.6812 74.2669 36.6392 74.305 36.5649C74.4823 36.216 74.7625 35.7852 75.0256 35.4534C75.1152 35.3391 75.0409 35.1713 74.896 35.1522ZM67.989 26.3083C67.8841 26.3083 67.8002 26.3922 67.8002 26.497V26.9393C67.8002 27.0422 67.7163 27.128 67.6115 27.128H64.4792C64.3763 27.128 64.2905 27.0422 64.2905 26.9393V26.1805C64.2905 26.0757 64.3763 25.9918 64.4792 25.9918H72.9037C73.0067 25.9918 73.0925 26.0757 73.0925 26.1805V26.9393C73.0925 27.0422 73.0067 27.128 72.9037 27.128H69.7009C69.5961 27.128 69.5122 27.0422 69.5122 26.9393V26.497C69.5122 26.3922 69.4264 26.3083 69.3216 26.3083H67.989Z" fill="white"/>
<path d="M81.567 26.8878L80.284 26.394C80.2001 26.3597 80.1048 26.394 80.0591 26.4722C79.1668 27.9916 77.7294 29.5301 76.3529 30.5157C76.2633 30.5805 76.2481 30.7044 76.3205 30.7883C76.6122 31.1201 76.9916 31.6253 77.2318 31.9551C77.2947 32.0428 77.4186 32.0599 77.5025 31.9894C77.737 31.7911 77.9715 31.5776 78.2117 31.3526C78.3318 31.2402 78.5263 31.3259 78.5263 31.4899V36.4886C78.5263 36.5915 78.6102 36.6754 78.7131 36.6754H80.0495C80.1544 36.6754 80.2383 36.5915 80.2383 36.4886V29.2346C80.2383 29.1926 80.2516 29.1507 80.2783 29.1183C80.7873 28.4777 81.262 27.8143 81.6624 27.1604C81.7234 27.0612 81.6757 26.9297 81.567 26.8878ZM81.0142 23.8127L79.7273 23.2865C79.6473 23.2541 79.5577 23.2789 79.5062 23.3494C78.8294 24.2874 77.6169 25.4389 76.5131 26.1805C76.4235 26.2415 76.4025 26.3616 76.4711 26.4474C76.7094 26.7486 76.9916 27.189 77.188 27.515C77.2432 27.6084 77.3672 27.6351 77.4549 27.5722C78.7131 26.6685 80.1048 25.3436 81.0923 24.1006C81.1705 24.0033 81.1286 23.8584 81.0142 23.8127ZM89.5131 28.0049H81.935C81.832 28.0049 81.7482 28.0888 81.7482 28.1918V29.4424C81.7482 29.5453 81.832 29.6292 81.935 29.6292H85.8031C85.9061 29.6292 85.99 29.7131 85.99 29.816V34.6336C85.99 34.849 85.8889 34.9081 85.6297 34.9081C85.4028 34.9196 84.6364 34.9215 83.8967 34.8929C83.7614 34.8872 83.666 35.0187 83.7156 35.1445C83.8776 35.562 84.0225 36.0634 84.095 36.4638C84.1121 36.5534 84.1903 36.6182 84.2818 36.6182C85.4771 36.6182 86.3465 36.5782 86.9241 36.3303C87.5571 36.073 87.7305 35.5983 87.7305 34.6775V29.816C87.7305 29.7131 87.8144 29.6292 87.9174 29.6292H89.5131C89.616 29.6292 89.6999 29.5453 89.6999 29.4424V28.1918C89.6999 28.0888 89.616 28.0049 89.5131 28.0049ZM89.1528 24.0491H82.5393C82.4364 24.0491 82.3525 24.133 82.3525 24.2378V25.4884C82.3525 25.5914 82.4364 25.6753 82.5393 25.6753H89.1528C89.2576 25.6753 89.3415 25.5914 89.3415 25.4884V24.2378C89.3415 24.133 89.2576 24.0491 89.1528 24.0491Z" fill="white"/>
<path d="M103.847 30.9238H97.1327C96.984 30.9238 96.8963 30.7598 96.9763 30.634C97.106 30.43 97.2299 30.2279 97.3481 30.0316L97.0755 29.961H98.1107C98.2136 29.961 98.2975 29.8771 98.2975 29.7742V28.27C98.2975 28.108 98.4881 28.026 98.6102 28.1328C99.8303 29.2023 101.394 30.0525 102.989 30.5368C103.071 30.5616 103.159 30.5272 103.205 30.4548C103.407 30.1307 103.714 29.7132 103.994 29.4024C104.089 29.2957 104.04 29.1298 103.901 29.0955C102.764 28.821 101.638 28.3749 100.692 27.8373C100.526 27.7419 100.597 27.4865 100.787 27.4865H103.632C103.737 27.4865 103.819 27.4026 103.819 27.2996V26.2797C103.819 26.1748 103.737 26.0929 103.632 26.0929H98.4843C98.3814 26.0929 98.2975 26.009 98.2975 25.9041V25.1968C98.2975 25.1015 98.3719 25.0215 98.4672 25.0119C99.8284 24.8842 101.121 24.7221 102.25 24.4972C102.396 24.4667 102.448 24.2818 102.339 24.1769L101.43 23.3114C101.386 23.2694 101.327 23.2523 101.268 23.2637C99.1687 23.685 95.5408 23.9081 92.3971 23.9596C92.2674 23.9615 92.1836 24.0911 92.2293 24.2112C92.3323 24.4934 92.4276 24.8384 92.4695 25.1168C92.4829 25.2064 92.561 25.2731 92.6525 25.2712C93.865 25.2693 95.1462 25.2293 96.4311 25.1549C96.5379 25.1492 96.6294 25.2331 96.6294 25.3398V25.9041C96.6294 26.009 96.5455 26.0929 96.4425 26.0929H91.2799C91.177 26.0929 91.0931 26.1748 91.0931 26.2797V27.2996C91.0931 27.4026 91.177 27.4865 91.2799 27.4865H94.212C94.3988 27.4865 94.4713 27.7343 94.3131 27.8334C93.3522 28.4263 92.1931 28.9163 91.0321 29.2213C90.8986 29.2556 90.8452 29.4196 90.9368 29.5225C91.1979 29.8142 91.4763 30.1993 91.665 30.4986C91.7108 30.5711 91.8004 30.6035 91.8823 30.5787C93.5123 30.0697 95.1004 29.2061 96.3148 28.1137C96.4368 28.005 96.6294 28.087 96.6294 28.251V29.6007C96.6294 29.7246 96.5131 29.8142 96.393 29.7818L95.802 29.6236C95.7219 29.6007 95.638 29.635 95.5942 29.7056C95.3826 30.064 95.1424 30.4491 94.9002 30.8361C94.8659 30.8914 94.8068 30.9238 94.742 30.9238H91.1503C91.0473 30.9238 90.9634 31.0077 90.9634 31.1106V32.1458C90.9634 32.2487 91.0473 32.3326 91.1503 32.3326H93.5524C93.703 32.3326 93.7926 32.5042 93.7049 32.6281C93.4113 33.0437 93.1272 33.4326 92.868 33.7739C92.7879 33.8768 92.8375 34.0275 92.9614 34.0656L94.3569 34.4907L94.5151 34.2753C94.9384 34.3706 95.3463 34.4659 95.7429 34.5613C95.7658 34.5651 95.7867 34.5708 95.8096 34.5765C94.6314 34.9025 93.1978 35.0741 91.4725 35.1656C91.3314 35.1713 91.2475 35.3238 91.318 35.4439C91.5068 35.7661 91.6841 36.1627 91.787 36.523C91.8118 36.6107 91.8938 36.6698 91.9853 36.6621C94.6314 36.42 96.6751 36.0521 98.2193 35.2704C98.2613 35.2495 98.3089 35.2457 98.3528 35.2571C99.9275 35.7089 101.333 36.1836 102.41 36.6088C102.488 36.6412 102.574 36.6145 102.625 36.5478L103.437 35.4554C103.514 35.3543 103.472 35.2094 103.353 35.1675C102.469 34.8568 101.376 34.5174 100.17 34.1857C100.032 34.1476 99.9885 33.9817 100.084 33.8768C100.463 33.4593 100.783 32.9789 101.064 32.4356C101.096 32.3727 101.159 32.3326 101.228 32.3326H103.847C103.952 32.3326 104.036 32.2487 104.036 32.1458V31.1106C104.036 31.0077 103.952 30.9238 103.847 30.9238ZM98.9857 32.6377C98.7188 32.9846 98.4081 33.2859 98.0516 33.547C98.0077 33.5794 97.9505 33.5909 97.8952 33.5794C97.1632 33.404 96.4197 33.2325 95.6762 33.0685C95.5465 33.0399 95.4874 32.8912 95.5618 32.7806L95.8115 32.4146C95.8458 32.3631 95.903 32.3326 95.9659 32.3326H98.8389C98.9953 32.3326 99.081 32.5137 98.9857 32.6377Z" fill="white"/>
<path d="M118.356 35.362C117.685 35.1008 116.842 34.8053 115.984 34.527C115.78 34.4602 115.828 34.159 116.041 34.159H116.945C117.05 34.159 117.134 34.0751 117.134 33.9703V27.9917C117.134 27.8869 117.05 27.803 116.945 27.803H106.81C106.707 27.803 106.621 27.8869 106.621 27.9917V33.9703C106.621 34.0751 106.707 34.159 106.81 34.159H108.004C108.21 34.159 108.267 34.4431 108.078 34.5213C107.298 34.8434 106.377 35.1466 105.529 35.3563C105.38 35.3925 105.333 35.5793 105.447 35.6804C105.769 35.9644 106.139 36.3076 106.389 36.5783C106.437 36.6298 106.505 36.6526 106.572 36.6336C107.899 36.2961 109.519 35.6956 110.655 35.0856C110.779 35.0188 110.791 34.8453 110.676 34.7634L110.303 34.5022C110.152 34.3973 110.227 34.159 110.411 34.159H113.153C113.336 34.159 113.41 34.3954 113.262 34.5022L112.846 34.7996C112.718 34.8892 112.751 35.0875 112.901 35.1332C114.316 35.5641 116.013 36.1722 117.046 36.6431C117.111 36.6717 117.183 36.6622 117.238 36.6183L118.405 35.6861C118.52 35.5946 118.491 35.4154 118.356 35.362ZM115.366 32.8207C115.366 32.9256 115.28 33.0094 115.178 33.0094H108.507C108.404 33.0094 108.318 32.9256 108.318 32.8207V32.5652C108.318 32.4604 108.404 32.3765 108.507 32.3765H115.178C115.28 32.3765 115.366 32.4604 115.366 32.5652V32.8207ZM115.366 31.0954C115.366 31.1983 115.28 31.2841 115.178 31.2841H108.507C108.404 31.2841 108.318 31.1983 108.318 31.0954V30.8685C108.318 30.7637 108.404 30.6798 108.507 30.6798H115.178C115.28 30.6798 115.366 30.7637 115.366 30.8685V31.0954ZM115.366 29.3987C115.366 29.5016 115.28 29.5874 115.178 29.5874H108.507C108.404 29.5874 108.318 29.5016 108.318 29.3987V29.1565C108.318 29.0517 108.404 28.9678 108.507 28.9678H115.178C115.28 28.9678 115.366 29.0517 115.366 29.1565V29.3987ZM116.443 23.6755H107.458C107.354 23.6755 107.27 23.7613 107.27 23.8643V27.0823C107.27 27.1872 107.354 27.2711 107.458 27.2711H116.443C116.546 27.2711 116.63 27.1872 116.63 27.0823V23.8643C116.63 23.7613 116.546 23.6755 116.443 23.6755ZM114.804 25.7593C114.804 25.8641 114.72 25.948 114.617 25.948H109.184C109.079 25.948 108.995 25.8641 108.995 25.7593V25.2026C108.995 25.0977 109.079 25.0139 109.184 25.0139H114.617C114.72 25.0139 114.804 25.0977 114.804 25.2026V25.7593Z" fill="white"/>
<path d="M132.875 27.7057C130.717 26.8802 128.574 25.3169 127.11 23.3209C127.075 23.2732 127.02 23.2446 126.961 23.2446H125.373C125.31 23.2446 125.253 23.2751 125.217 23.3285C124.153 24.9547 122.01 26.8726 119.694 27.9573C119.581 28.0088 119.547 28.1518 119.629 28.2471C119.905 28.5712 120.199 29.0021 120.386 29.3414C120.435 29.4291 120.544 29.4634 120.636 29.4196C121.307 29.086 121.974 28.697 122.603 28.27C122.729 28.1823 122.898 28.2719 122.898 28.4244V28.922C122.898 29.0269 122.984 29.1126 123.087 29.1126H129.424C129.529 29.1126 129.615 29.0269 129.615 28.922V28.331C129.615 28.1785 129.783 28.0908 129.908 28.1747C130.559 28.6036 131.23 28.983 131.876 29.2957C131.964 29.3395 132.068 29.3071 132.12 29.2232C132.36 28.8248 132.64 28.3768 132.957 28.005C133.041 27.904 132.997 27.7534 132.875 27.7057ZM128.444 27.5436H124.14C123.964 27.5436 123.884 27.3244 124.019 27.21C124.851 26.5199 125.562 25.7878 126.09 25.0843C126.164 24.9852 126.307 24.9833 126.385 25.0805C126.95 25.7935 127.71 26.5275 128.562 27.2081C128.702 27.3206 128.623 27.5436 128.444 27.5436ZM132.057 30.3061H120.542C120.437 30.3061 120.353 30.39 120.353 30.4948V31.6978C120.353 31.8026 120.437 31.8865 120.542 31.8865H123.419C123.55 31.8865 123.644 32.018 123.598 32.1401C123.322 32.8855 122.98 33.6862 122.647 34.3877C122.616 34.4507 122.551 34.4926 122.481 34.4945L120.636 34.5555C120.523 34.5593 120.439 34.6585 120.454 34.7709L120.632 36.0597C120.645 36.1569 120.727 36.2275 120.826 36.2217C123.238 36.1093 126.658 35.9701 129.927 35.7909C129.992 35.7871 130.055 35.8176 130.093 35.871C130.252 36.0921 130.395 36.3056 130.513 36.5058C130.566 36.5992 130.682 36.6297 130.774 36.5744L132.034 35.8138C132.128 35.7585 132.156 35.6384 132.097 35.5488C131.415 34.5155 130.194 33.1581 129.007 32.1038C128.948 32.0505 128.864 32.0409 128.793 32.0771L127.636 32.6834C127.52 32.7444 127.499 32.8988 127.594 32.9884C127.914 33.2915 128.238 33.6309 128.547 33.976C128.654 34.0942 128.572 34.2848 128.412 34.2905C127.19 34.3382 125.966 34.3839 124.807 34.4221C124.66 34.4278 124.565 34.2734 124.633 34.1456C125.005 33.4517 125.398 32.7082 125.752 31.9914C125.785 31.9265 125.85 31.8865 125.92 31.8865H132.057C132.162 31.8865 132.246 31.8026 132.246 31.6978V30.4948C132.246 30.39 132.162 30.3061 132.057 30.3061Z" fill="white"/>
<path d="M65.6595 18.2829C65.5738 18.1895 65.4556 18.1418 65.303 18.1418C65.0628 18.1418 64.9046 18.2581 64.8264 18.4907L64.1611 20.462L63.4957 18.4907C63.4157 18.2581 63.2574 18.1418 63.021 18.1418C62.8895 18.1418 62.7808 18.1781 62.6969 18.2486C62.6016 18.3306 62.554 18.4412 62.554 18.5803V21.0091C62.554 21.0682 62.573 21.1159 62.6112 21.154C62.6645 21.2055 62.7351 21.2322 62.8228 21.2322C62.9352 21.2322 63.0153 21.194 63.063 21.1159C63.0839 21.0854 63.0935 21.0492 63.0916 21.0091L63.0668 18.7576L63.8046 20.8814C63.8675 21.0682 63.9876 21.1616 64.163 21.1616C64.2736 21.1616 64.3651 21.1159 64.4375 21.0282C64.4718 20.9882 64.4985 20.9386 64.5176 20.8814L65.2554 18.7576L65.2306 21.0091C65.2306 21.0625 65.2458 21.1102 65.2821 21.1464C65.3354 21.2036 65.4079 21.2322 65.5013 21.2322C65.5947 21.2322 65.6614 21.2055 65.7129 21.1521C65.7491 21.114 65.7682 21.0663 65.7682 21.0091V18.5803C65.7682 18.4621 65.732 18.363 65.6595 18.2829Z" fill="white"/>
<path d="M68.4182 19.1254C68.3782 19.0454 68.3057 19.0034 68.199 19.0034C68.0636 19.0034 67.9931 19.0587 67.9835 19.1693L67.9721 19.2989C67.8196 19.1026 67.5965 19.0034 67.2991 19.0034C67.1676 19.0034 67.0398 19.0301 66.9197 19.0816C66.7463 19.1559 66.6052 19.2741 66.4946 19.4362C66.3612 19.6306 66.2944 19.8594 66.2944 20.1225C66.2944 20.4008 66.3593 20.6391 66.4908 20.8336C66.6757 21.11 66.9388 21.2473 67.282 21.2473C67.6023 21.2473 67.8291 21.1291 67.9607 20.8908L67.9835 21.0281C68.0026 21.1634 68.0789 21.232 68.2085 21.232C68.3019 21.232 68.3686 21.1977 68.4087 21.1329C68.4296 21.0986 68.4392 21.0586 68.4392 21.0128V19.2208C68.4392 19.1864 68.4316 19.154 68.4182 19.1254ZM67.9302 20.1568C67.9302 20.3627 67.8558 20.5343 67.709 20.6696C67.608 20.7612 67.4974 20.8069 67.3754 20.8069C67.179 20.8069 67.0303 20.7192 66.9312 20.54C66.8683 20.4237 66.8359 20.2845 66.8359 20.1225C66.8359 19.9319 66.8816 19.7736 66.9712 19.6497C67.0761 19.5086 67.2114 19.44 67.3792 19.44C67.526 19.44 67.6537 19.4953 67.7643 19.6078C67.8749 19.7183 67.9302 19.848 67.9302 19.9967V20.1568Z" fill="white"/>
<path d="M70.4906 19.1194C70.4601 19.0832 70.42 19.066 70.3705 19.066H69.9472V18.6104C69.9472 18.5666 69.9377 18.5284 69.9148 18.496C69.8691 18.4217 69.7947 18.3835 69.6918 18.3835C69.6022 18.3835 69.5336 18.4121 69.484 18.4674C69.4478 18.5075 69.4306 18.5532 69.4306 18.6104V19.066H69.0074C68.975 19.066 68.9483 19.0737 68.9216 19.0889C68.8606 19.1271 68.8301 19.19 68.8301 19.2777C68.8301 19.3539 68.8549 19.413 68.9025 19.455C68.9311 19.4797 68.9673 19.4931 69.0074 19.4931H69.4306V21.0087C69.4306 21.0526 69.4401 21.0907 69.463 21.1231C69.5088 21.1955 69.5831 21.2318 69.6861 21.2318C69.7776 21.2318 69.8481 21.2013 69.8996 21.1441C69.932 21.1078 69.9472 21.0621 69.9472 21.0087V19.4931H70.3705C70.4029 19.4931 70.4315 19.4855 70.4563 19.4702C70.5173 19.4302 70.5478 19.3673 70.5478 19.2834C70.5478 19.2167 70.5287 19.1633 70.4906 19.1194Z" fill="white"/>
<path d="M72.2919 20.0476C72.2081 20.0038 71.9831 19.9275 71.6209 19.815C71.5599 19.796 71.516 19.7788 71.4893 19.7674C71.4131 19.7273 71.373 19.6721 71.373 19.5996C71.373 19.4757 71.4817 19.4147 71.699 19.4147C71.8668 19.4147 72.0174 19.4681 72.1547 19.5729C72.2138 19.6206 72.2691 19.6435 72.3186 19.6435C72.3949 19.6435 72.4559 19.613 72.4997 19.5539C72.5322 19.5081 72.5474 19.4585 72.5474 19.4071C72.5474 19.3175 72.4997 19.2393 72.4044 19.1745C72.229 19.0525 71.9964 18.9915 71.7067 18.9915C71.5008 18.9915 71.3273 19.0296 71.1881 19.1058C70.967 19.224 70.8564 19.3994 70.8564 19.6301C70.8564 19.9237 71.0165 20.1201 71.3387 20.2173C71.6342 20.3088 71.8191 20.3717 71.8973 20.4079C72.0174 20.467 72.0784 20.5395 72.0784 20.6272C72.0784 20.7549 71.9583 20.8197 71.72 20.8197C71.4817 20.8197 71.2987 20.7473 71.15 20.6043C71.1004 20.5585 71.047 20.5338 70.9898 20.5338C70.9193 20.5338 70.8621 20.5643 70.8202 20.6253C70.7897 20.6691 70.7744 20.7149 70.7744 20.7606C70.7744 20.8598 70.8373 20.9551 70.967 21.0466C71.1652 21.1858 71.4169 21.2544 71.7238 21.2544C71.9907 21.2544 72.2023 21.2029 72.3587 21.0981C72.5379 20.978 72.6275 20.8045 72.6275 20.5776C72.6275 20.3355 72.5169 20.1582 72.2919 20.0476Z" fill="white"/>
<path d="M75.0777 19.1289C75.032 19.0565 74.9557 19.0203 74.8508 19.0203C74.7631 19.0203 74.6945 19.045 74.6449 19.0984C74.6068 19.1366 74.5877 19.1842 74.5877 19.2414V20.2118C74.5877 20.3281 74.5401 20.4444 74.4429 20.5607C74.3132 20.7151 74.1702 20.7913 74.0158 20.7913C73.8786 20.7913 73.7813 20.7265 73.7222 20.5988C73.686 20.5206 73.6669 20.4234 73.6669 20.3052V19.2414C73.6669 19.1995 73.6574 19.1613 73.6345 19.1289C73.5888 19.0565 73.5125 19.0203 73.4096 19.0203C73.3162 19.0203 73.2456 19.0489 73.1941 19.1061C73.1617 19.1442 73.1465 19.188 73.1465 19.2414V20.3567C73.1465 20.6236 73.2018 20.8276 73.3123 20.9705C73.4553 21.1536 73.6555 21.247 73.911 21.247C74.2332 21.247 74.4829 21.1173 74.6545 20.86L74.6793 21.0335C74.6983 21.1688 74.7708 21.2355 74.8985 21.2355C74.9767 21.2355 75.0339 21.2069 75.072 21.1517C75.0968 21.1154 75.1101 21.0697 75.1101 21.0163V19.2414C75.1101 19.1995 75.0987 19.1613 75.0777 19.1289Z" fill="white"/>
<path d="M77.6836 19.0759C77.6454 19.0339 77.5959 19.011 77.5349 19.011C77.4243 19.011 77.3518 19.0606 77.3213 19.1597L77.268 19.3294C77.104 19.1121 76.879 19.0034 76.595 19.0034C76.4539 19.0034 76.3186 19.0358 76.187 19.1026C76.004 19.1922 75.861 19.3275 75.76 19.5086C75.6666 19.6783 75.6189 19.867 75.6189 20.0767C75.6189 20.3455 75.6875 20.5724 75.8267 20.7612C76.0154 21.0204 76.269 21.1482 76.5912 21.1482C76.757 21.1482 76.9057 21.1043 77.0354 21.0166C77.1097 20.967 77.1707 20.9022 77.2184 20.8203V21.1157C77.2184 21.2359 77.1955 21.3388 77.146 21.4284C77.0564 21.6 76.8981 21.6839 76.6751 21.6839C76.4673 21.6839 76.2804 21.621 76.1146 21.4932C76.0498 21.4437 75.9926 21.417 75.9468 21.417C75.8763 21.417 75.8172 21.4513 75.7676 21.518C75.739 21.5561 75.7257 21.5981 75.7257 21.6457C75.7257 21.7353 75.7714 21.8154 75.8648 21.8917C76.0555 22.0499 76.3281 22.1281 76.6789 22.1281C77.0297 22.1281 77.2737 22.0461 77.4491 21.8821C77.6416 21.7029 77.7369 21.4322 77.7369 21.0738V19.2208C77.7369 19.1636 77.7198 19.114 77.6836 19.0759ZM77.2184 20.1053C77.2184 20.2655 77.1726 20.4066 77.083 20.5286C76.9782 20.6696 76.8447 20.7421 76.6846 20.7421C76.4939 20.7421 76.3472 20.6601 76.2442 20.4962C76.1718 20.3818 76.1374 20.2426 76.1374 20.0806C76.1374 19.928 76.1699 19.7965 76.2385 19.6859C76.3414 19.5143 76.492 19.4266 76.6865 19.4266C76.8276 19.4266 76.9458 19.4762 77.0449 19.5753C77.1612 19.6916 77.2184 19.8289 77.2184 19.989V20.1053Z" fill="white"/>
<path d="M80.3545 19.1254C80.3144 19.0454 80.242 19.0034 80.1333 19.0034C79.9999 19.0034 79.9293 19.0587 79.9198 19.1693L79.9065 19.2989C79.7559 19.1026 79.5328 19.0034 79.2354 19.0034C79.102 19.0034 78.9761 19.0301 78.856 19.0816C78.6825 19.1559 78.5396 19.2741 78.4309 19.4362C78.2974 19.6306 78.2307 19.8594 78.2307 20.1225C78.2307 20.4008 78.2955 20.6391 78.4271 20.8336C78.612 21.11 78.8751 21.2473 79.2163 21.2473C79.5385 21.2473 79.7654 21.1291 79.8969 20.8908L79.9198 21.0281C79.9389 21.1634 80.0151 21.232 80.1448 21.232C80.2382 21.232 80.3049 21.1977 80.3449 21.1329C80.364 21.0986 80.3755 21.0586 80.3755 21.0128V19.2208C80.3755 19.1864 80.3678 19.154 80.3545 19.1254ZM79.8645 20.1568C79.8645 20.3627 79.7921 20.5343 79.6453 20.6696C79.5442 20.7612 79.4337 20.8069 79.3117 20.8069C79.1153 20.8069 78.9666 20.7192 78.8675 20.54C78.8045 20.4237 78.7721 20.2845 78.7721 20.1225C78.7721 19.9319 78.8179 19.7736 78.9075 19.6497C79.0104 19.5086 79.1477 19.44 79.3155 19.44C79.4604 19.44 79.59 19.4953 79.7006 19.6078C79.8111 19.7183 79.8645 19.848 79.8645 19.9967V20.1568Z" fill="white"/>
<path d="M82.3981 20.0476C82.3123 20.0038 82.0893 19.9275 81.7271 19.815C81.6661 19.796 81.6222 19.7788 81.5955 19.7674C81.5193 19.7273 81.4792 19.6721 81.4792 19.5996C81.4792 19.4757 81.5879 19.4147 81.8052 19.4147C81.973 19.4147 82.1236 19.4681 82.2609 19.5729C82.32 19.6206 82.3753 19.6435 82.4248 19.6435C82.5011 19.6435 82.5621 19.613 82.6059 19.5539C82.6383 19.5081 82.6536 19.4585 82.6536 19.4071C82.6536 19.3175 82.6059 19.2393 82.5106 19.1745C82.3352 19.0525 82.1026 18.9915 81.8129 18.9915C81.607 18.9915 81.4335 19.0296 81.2924 19.1058C81.0732 19.224 80.9626 19.3994 80.9626 19.6301C80.9626 19.9237 81.1227 20.1201 81.443 20.2173C81.7385 20.3088 81.9253 20.3717 82.0035 20.4079C82.1236 20.467 82.1846 20.5395 82.1846 20.6272C82.1846 20.7549 82.0645 20.8197 81.8243 20.8197C81.5841 20.8197 81.4049 20.7473 81.2543 20.6043C81.2047 20.5585 81.1532 20.5338 81.096 20.5338C81.0255 20.5338 80.9683 20.5643 80.9264 20.6253C80.8959 20.6691 80.8806 20.7149 80.8806 20.7606C80.8806 20.8598 80.9435 20.9551 81.0732 21.0466C81.2695 21.1858 81.5231 21.2544 81.8281 21.2544C82.0969 21.2544 82.3085 21.2029 82.4649 21.0981C82.6441 20.978 82.7337 20.8045 82.7337 20.5776C82.7337 20.3355 82.6231 20.1582 82.3981 20.0476Z" fill="white"/>
<path d="M85.2006 19.1254C85.1606 19.0454 85.0862 19.0034 84.9795 19.0034C84.846 19.0034 84.7736 19.0587 84.7641 19.1693L84.7526 19.2989C84.602 19.1026 84.377 19.0034 84.0796 19.0034C83.9481 19.0034 83.8204 19.0301 83.7003 19.0816C83.5268 19.1559 83.3857 19.2741 83.2751 19.4362C83.1417 19.6306 83.075 19.8594 83.075 20.1225C83.075 20.4008 83.1398 20.6391 83.2713 20.8336C83.4562 21.11 83.7193 21.2473 84.0625 21.2473C84.3828 21.2473 84.6096 21.1291 84.7431 20.8908L84.7641 21.0281C84.785 21.1634 84.8594 21.232 84.989 21.232C85.0824 21.232 85.1492 21.1977 85.1892 21.1329C85.2102 21.0986 85.2197 21.0586 85.2197 21.0128V19.2208C85.2197 19.1864 85.214 19.154 85.2006 19.1254ZM84.7107 20.1568C84.7107 20.3627 84.6363 20.5343 84.4895 20.6696C84.3885 20.7612 84.2779 20.8069 84.1559 20.8069C83.9595 20.8069 83.8127 20.7192 83.7136 20.54C83.6488 20.4237 83.6164 20.2845 83.6164 20.1225C83.6164 19.9319 83.6621 19.7736 83.7536 19.6497C83.8566 19.5086 83.9919 19.44 84.1597 19.44C84.3065 19.44 84.4342 19.4953 84.5448 19.6078C84.6554 19.7183 84.7107 19.848 84.7107 19.9967V20.1568Z" fill="white"/>
<path d="M87.7436 20.7689L87.0078 19.9606L87.6388 19.4554C87.6979 19.4077 87.7284 19.3505 87.7284 19.28C87.7284 19.2094 87.6979 19.1484 87.6407 19.0893C87.5949 19.0455 87.5416 19.0226 87.4805 19.0226C87.4157 19.0226 87.3547 19.0474 87.2937 19.0989L86.4034 19.8538V18.3573C86.4034 18.3191 86.3939 18.2848 86.3748 18.2543C86.3291 18.1781 86.2528 18.1418 86.1441 18.1418C86.0583 18.1418 85.9897 18.1685 85.9401 18.2238C85.9058 18.26 85.8887 18.3039 85.8887 18.3573V21.0091C85.8887 21.0453 85.8963 21.0797 85.9116 21.1083C85.9554 21.1902 86.0317 21.2322 86.1441 21.2322C86.2204 21.2322 86.2852 21.2093 86.3367 21.1635C86.3805 21.1235 86.4034 21.072 86.4034 21.0091V20.4467L86.6341 20.2599L87.3318 21.1254C87.3871 21.1921 87.4539 21.2246 87.5301 21.2246C87.5987 21.2246 87.6636 21.2017 87.7227 21.1578C87.7856 21.1102 87.818 21.0453 87.818 20.9596C87.818 20.889 87.7932 20.8261 87.7436 20.7689Z" fill="white"/>
<path d="M88.7846 18.1643C88.7313 18.1319 88.676 18.1147 88.6169 18.1147C88.5349 18.1147 88.4625 18.1414 88.3995 18.1929C88.3233 18.2577 88.2852 18.3397 88.2852 18.4427C88.2852 18.5723 88.3423 18.6676 88.4567 18.7324C88.5044 18.7591 88.5578 18.7725 88.6131 18.7725C88.7103 18.7725 88.7904 18.7382 88.8552 18.6657C88.9143 18.6028 88.9429 18.5284 88.9429 18.4446C88.9429 18.3206 88.8914 18.2272 88.7846 18.1643ZM88.7942 19.0737C88.7427 19.0356 88.6817 19.0165 88.615 19.0165C88.5559 19.0165 88.5044 19.0298 88.4567 19.0603C88.3862 19.1004 88.3519 19.1614 88.3519 19.2415V21.0049C88.3519 21.0488 88.3614 21.0869 88.3843 21.1212C88.4319 21.1936 88.5082 21.2318 88.6131 21.2318C88.7046 21.2318 88.777 21.2013 88.8266 21.1422C88.8609 21.1059 88.8781 21.0583 88.8781 21.0049V19.2415C88.8781 19.1728 88.8495 19.1175 88.7942 19.0737Z" fill="white"/>
<path d="M94.3077 18.2365C94.2734 18.2022 94.2315 18.1851 94.18 18.1851H92.6129C92.3308 18.1851 92.1897 18.3261 92.1897 18.6083V21.0047C92.1897 21.0619 92.2088 21.1114 92.2469 21.1496C92.3003 21.2029 92.3746 21.2315 92.4699 21.2315C92.5805 21.2315 92.6606 21.1972 92.714 21.1286C92.7388 21.0924 92.754 21.0504 92.754 21.0047V19.9256H93.9894C94.0256 19.9256 94.0561 19.918 94.0809 19.9028C94.1495 19.8608 94.1838 19.7922 94.1838 19.695C94.1838 19.6168 94.159 19.5539 94.1114 19.5062C94.079 19.4757 94.037 19.4586 93.9894 19.4586H92.754V18.7436C92.754 18.6941 92.7788 18.6693 92.8264 18.6693H94.18C94.2162 18.6693 94.2486 18.6617 94.2753 18.6445C94.3459 18.6007 94.3802 18.5263 94.3802 18.4253C94.3802 18.3471 94.3573 18.2842 94.3077 18.2365Z" fill="white"/>
<path d="M96.441 20.5242C96.3895 20.5242 96.3438 20.5452 96.3037 20.5871C96.1607 20.7339 95.9892 20.8064 95.7871 20.8064C95.6079 20.8064 95.4611 20.753 95.3448 20.6424C95.238 20.5414 95.1808 20.4117 95.1732 20.2497H96.4505C96.5477 20.2497 96.6164 20.2268 96.6602 20.1811C96.6984 20.1391 96.7174 20.0667 96.7174 19.9618C96.7174 19.7273 96.6335 19.5157 96.4677 19.327C96.2694 19.1039 96.0197 18.9915 95.7165 18.9915C95.3486 18.9915 95.0626 19.1287 94.8586 19.4071C94.7118 19.6053 94.6394 19.8455 94.6394 20.1258C94.6394 20.5014 94.769 20.7968 95.0302 21.0104C95.2285 21.1724 95.4744 21.2544 95.7661 21.2544C96.1054 21.2544 96.3704 21.1629 96.5611 20.9799C96.6354 20.9093 96.6717 20.8388 96.6717 20.7644C96.6717 20.7015 96.6488 20.6462 96.603 20.5986C96.5535 20.549 96.5001 20.5242 96.441 20.5242ZM95.4306 19.4833C95.5183 19.4318 95.6117 19.4071 95.7108 19.4071C95.8767 19.4071 96.0044 19.4643 96.0978 19.5767C96.1588 19.6511 96.1874 19.7235 96.1874 19.796C96.1874 19.8284 96.1665 19.8455 96.1264 19.8455H95.1808C95.2075 19.6854 95.2914 19.5653 95.4306 19.4833Z" fill="white"/>
<path d="M98.5819 20.0476C98.4961 20.0038 98.2712 19.9275 97.909 19.815C97.848 19.796 97.8041 19.7788 97.7793 19.7674C97.7012 19.7273 97.663 19.6721 97.663 19.5996C97.663 19.4757 97.7717 19.4147 97.9871 19.4147C98.1549 19.4147 98.3074 19.4681 98.4428 19.5729C98.5038 19.6206 98.559 19.6435 98.6086 19.6435C98.6849 19.6435 98.744 19.613 98.7878 19.5539C98.8202 19.5081 98.8374 19.4585 98.8374 19.4071C98.8374 19.3175 98.7897 19.2393 98.6944 19.1745C98.519 19.0525 98.2864 18.9915 97.9967 18.9915C97.7908 18.9915 97.6173 19.0296 97.4762 19.1058C97.255 19.224 97.1445 19.3994 97.1445 19.6301C97.1445 19.9237 97.3065 20.1201 97.6268 20.2173C97.9223 20.3088 98.1091 20.3717 98.1873 20.4079C98.3074 20.467 98.3665 20.5395 98.3665 20.6272C98.3665 20.7549 98.2464 20.8197 98.0081 20.8197C97.7698 20.8197 97.5887 20.7473 97.4381 20.6043C97.3885 20.5585 97.3351 20.5338 97.2798 20.5338C97.2093 20.5338 97.1521 20.5643 97.1083 20.6253C97.0777 20.6691 97.0625 20.7149 97.0625 20.7606C97.0625 20.8598 97.1273 20.9551 97.2551 21.0466C97.4533 21.1858 97.705 21.2544 98.0119 21.2544C98.2788 21.2544 98.4904 21.2029 98.6487 21.0981C98.8279 20.978 98.9175 20.8045 98.9175 20.5776C98.9175 20.3355 98.805 20.1582 98.5819 20.0476Z" fill="white"/>
<path d="M100.816 19.1194C100.786 19.0832 100.746 19.066 100.696 19.066H100.273V18.6104C100.273 18.5666 100.261 18.5284 100.241 18.496C100.195 18.4217 100.119 18.3835 100.016 18.3835C99.9279 18.3835 99.8592 18.4121 99.8097 18.4674C99.7734 18.5075 99.7544 18.5532 99.7544 18.6104V19.066H99.3312C99.3007 19.066 99.2721 19.0737 99.2473 19.0889C99.1863 19.1271 99.1558 19.19 99.1558 19.2777C99.1558 19.3539 99.1786 19.413 99.2282 19.455C99.2568 19.4797 99.2911 19.4931 99.3312 19.4931H99.7544V21.0087C99.7544 21.0526 99.7658 21.0907 99.7868 21.1231C99.8345 21.1955 99.9088 21.2318 100.012 21.2318C100.103 21.2318 100.174 21.2013 100.225 21.1441C100.258 21.1078 100.273 21.0621 100.273 21.0087V19.4931H100.696C100.729 19.4931 100.757 19.4855 100.78 19.4702C100.841 19.4302 100.873 19.3673 100.873 19.2834C100.873 19.2167 100.854 19.1633 100.816 19.1194Z" fill="white"/>
<path d="M101.768 18.1643C101.714 18.1319 101.657 18.1147 101.598 18.1147C101.518 18.1147 101.445 18.1414 101.382 18.1929C101.306 18.2577 101.268 18.3397 101.268 18.4427C101.268 18.5723 101.325 18.6676 101.438 18.7324C101.487 18.7591 101.541 18.7725 101.594 18.7725C101.693 18.7725 101.773 18.7382 101.838 18.6657C101.897 18.6028 101.926 18.5284 101.926 18.4446C101.926 18.3206 101.872 18.2272 101.768 18.1643ZM101.777 19.0737C101.726 19.0356 101.665 19.0165 101.596 19.0165C101.539 19.0165 101.487 19.0298 101.438 19.0603C101.369 19.1004 101.333 19.1614 101.333 19.2415V21.0049C101.333 21.0488 101.344 21.0869 101.365 21.1212C101.415 21.1936 101.491 21.2318 101.594 21.2318C101.687 21.2318 101.758 21.2013 101.809 21.1422C101.842 21.1059 101.859 21.0583 101.859 21.0049V19.2415C101.859 19.1728 101.832 19.1175 101.777 19.0737Z" fill="white"/>
<path d="M104.291 19.0483C104.242 19.0216 104.192 19.0083 104.141 19.0083C104.034 19.0083 103.96 19.0617 103.918 19.1684L103.384 20.5315L102.85 19.1684C102.808 19.0636 102.734 19.0102 102.625 19.0102C102.576 19.0102 102.524 19.0236 102.475 19.0483C102.379 19.0998 102.332 19.1742 102.332 19.2695C102.332 19.3019 102.337 19.3343 102.353 19.3686L103.064 21.0082C103.13 21.1607 103.237 21.2388 103.386 21.2388C103.534 21.2388 103.637 21.1607 103.706 21.0082L104.415 19.3686C104.431 19.3343 104.438 19.3019 104.438 19.2676C104.438 19.1761 104.389 19.1036 104.291 19.0483Z" fill="white"/>
<path d="M106.787 19.1254C106.747 19.0454 106.673 19.0034 106.566 19.0034C106.432 19.0034 106.362 19.0587 106.352 19.1693L106.339 19.2989C106.188 19.1026 105.965 19.0034 105.668 19.0034C105.535 19.0034 105.409 19.0301 105.289 19.0816C105.115 19.1559 104.972 19.2741 104.863 19.4362C104.73 19.6306 104.661 19.8594 104.661 20.1225C104.661 20.4008 104.728 20.6391 104.86 20.8336C105.043 21.11 105.308 21.2473 105.649 21.2473C105.971 21.2473 106.198 21.1291 106.33 20.8908L106.352 21.0281C106.371 21.1634 106.448 21.232 106.577 21.232C106.671 21.232 106.737 21.1977 106.778 21.1329C106.797 21.0986 106.808 21.0586 106.808 21.0128V19.2208C106.808 19.1864 106.8 19.154 106.787 19.1254ZM106.297 20.1568C106.297 20.3627 106.225 20.5343 106.076 20.6696C105.977 20.7612 105.866 20.8069 105.744 20.8069C105.548 20.8069 105.399 20.7192 105.3 20.54C105.235 20.4237 105.205 20.2845 105.205 20.1225C105.205 19.9319 105.249 19.7736 105.34 19.6497C105.443 19.5086 105.578 19.44 105.748 19.44C105.893 19.44 106.023 19.4953 106.133 19.6078C106.242 19.7183 106.297 19.848 106.297 19.9967V20.1568Z" fill="white"/>
<path d="M107.99 18.1971C107.939 18.159 107.878 18.1418 107.809 18.1418C107.752 18.1418 107.7 18.1552 107.653 18.1838C107.582 18.2238 107.548 18.2829 107.548 18.3611V21.0053C107.548 21.0492 107.557 21.0873 107.58 21.1216C107.628 21.194 107.704 21.2322 107.809 21.2322C107.901 21.2322 107.973 21.2017 108.023 21.1426C108.057 21.1064 108.074 21.0587 108.074 21.0053V18.3611C108.074 18.2925 108.045 18.2372 107.99 18.1971Z" fill="white"/>
<path d="M113.027 20.5547C112.974 20.509 112.918 20.4861 112.859 20.4861C112.796 20.4861 112.745 20.5128 112.705 20.5643C112.579 20.7244 112.436 20.8026 112.28 20.8026C112.123 20.8026 111.978 20.7339 111.866 20.5948C111.765 20.467 111.713 20.3088 111.713 20.122C111.713 19.9351 111.759 19.7788 111.849 19.6549C111.954 19.5081 112.095 19.4357 112.27 19.4357C112.425 19.4357 112.558 19.5043 112.67 19.6435C112.718 19.7006 112.777 19.7292 112.846 19.7292C112.907 19.7292 112.962 19.7083 113.01 19.6682C113.063 19.6206 113.09 19.5653 113.09 19.4986C113.09 19.4128 113.048 19.3251 112.96 19.2393C112.792 19.0734 112.564 18.9915 112.274 18.9915C112.171 18.9915 112.072 19.0029 111.976 19.0277C111.681 19.1039 111.46 19.2755 111.315 19.5443C111.223 19.7159 111.176 19.9065 111.176 20.1143C111.176 20.4423 111.275 20.7111 111.469 20.9208C111.675 21.1438 111.946 21.2544 112.28 21.2544C112.613 21.2544 112.855 21.1572 113.025 20.9627C113.086 20.8922 113.117 20.8216 113.117 20.7511C113.117 20.671 113.086 20.6062 113.027 20.5547Z" fill="white"/>
<path d="M115.229 19.2927C115.034 19.0925 114.785 18.9915 114.483 18.9915C114.182 18.9915 113.925 19.0925 113.728 19.2946C113.524 19.5024 113.423 19.775 113.423 20.1163C113.423 20.4346 113.509 20.6977 113.681 20.9017C113.875 21.1362 114.142 21.2544 114.48 21.2544C114.865 21.2544 115.154 21.1076 115.347 20.8121C115.473 20.6196 115.536 20.387 115.536 20.1182C115.536 19.7788 115.435 19.5024 115.229 19.2927ZM114.884 20.591C114.79 20.7358 114.655 20.8064 114.483 20.8064C114.266 20.8064 114.112 20.7015 114.022 20.4899C113.976 20.3832 113.953 20.2573 113.953 20.1143C113.953 19.9256 113.993 19.7712 114.075 19.6473C114.173 19.5005 114.308 19.4261 114.478 19.4261C114.647 19.4261 114.779 19.4967 114.876 19.6377C114.964 19.7597 115.006 19.9199 115.006 20.1143C115.006 20.3088 114.966 20.4651 114.884 20.591Z" fill="white"/>
<path d="M118.834 19.337C118.718 19.114 118.533 19.0034 118.281 19.0034C117.995 19.0034 117.776 19.1235 117.625 19.3618C117.587 19.2551 117.526 19.1731 117.444 19.114C117.343 19.0415 117.225 19.0034 117.09 19.0034C116.823 19.0034 116.626 19.1178 116.497 19.3447L116.485 19.2322C116.47 19.0911 116.39 19.0206 116.247 19.0206C116.18 19.0206 116.125 19.0435 116.083 19.0892C116.047 19.1273 116.03 19.1731 116.03 19.2284V21.0128C116.03 21.049 116.037 21.0833 116.052 21.11C116.094 21.1901 116.173 21.232 116.283 21.232C116.371 21.232 116.441 21.2034 116.491 21.1463C116.523 21.11 116.54 21.0662 116.54 21.0128V19.989C116.54 19.8556 116.584 19.7336 116.672 19.6211C116.76 19.5143 116.853 19.4591 116.954 19.4591C117.055 19.4591 117.126 19.5124 117.173 19.6192C117.208 19.6955 117.227 19.7908 117.227 19.9033V21.0166C117.227 21.0547 117.234 21.0891 117.252 21.1157C117.297 21.1939 117.374 21.232 117.48 21.232C117.566 21.232 117.633 21.2054 117.682 21.152C117.719 21.1138 117.736 21.0681 117.736 21.0166V19.9604C117.736 19.8289 117.78 19.7107 117.869 19.6059C117.955 19.5086 118.045 19.4591 118.142 19.4591C118.251 19.4591 118.329 19.5182 118.382 19.6344C118.414 19.7069 118.43 19.7889 118.43 19.8823V21.0128C118.43 21.0471 118.435 21.0776 118.451 21.1043C118.491 21.1882 118.567 21.232 118.681 21.232C118.765 21.232 118.834 21.2054 118.883 21.1539C118.92 21.1177 118.939 21.07 118.939 21.0128V19.8327C118.939 19.6364 118.904 19.4724 118.834 19.337Z" fill="white"/>
<path d="M122.412 19.337C122.296 19.114 122.113 19.0034 121.861 19.0034C121.573 19.0034 121.356 19.1235 121.204 19.3618C121.166 19.2551 121.105 19.1731 121.024 19.114C120.921 19.0415 120.803 19.0034 120.668 19.0034C120.403 19.0034 120.205 19.1178 120.077 19.3447L120.065 19.2322C120.048 19.0911 119.968 19.0206 119.825 19.0206C119.759 19.0206 119.703 19.0435 119.661 19.0892C119.627 19.1273 119.61 19.1731 119.61 19.2284V21.0128C119.61 21.049 119.617 21.0833 119.631 21.11C119.675 21.1901 119.751 21.232 119.862 21.232C119.951 21.232 120.02 21.2034 120.071 21.1463C120.104 21.11 120.119 21.0662 120.119 21.0128V19.989C120.119 19.8556 120.163 19.7336 120.25 19.6211C120.338 19.5143 120.433 19.4591 120.534 19.4591C120.636 19.4591 120.704 19.5124 120.754 19.6192C120.788 19.6955 120.805 19.7908 120.805 19.9033V21.0166C120.805 21.0547 120.813 21.0891 120.832 21.1157C120.876 21.1939 120.954 21.232 121.061 21.232C121.145 21.232 121.213 21.2054 121.263 21.152C121.297 21.1138 121.314 21.0681 121.314 21.0166V19.9604C121.314 19.8289 121.36 19.7107 121.45 19.6059C121.533 19.5086 121.625 19.4591 121.722 19.4591C121.829 19.4591 121.909 19.5182 121.96 19.6344C121.993 19.7069 122.008 19.7889 122.008 19.8823V21.0128C122.008 21.0471 122.016 21.0776 122.029 21.1043C122.069 21.1882 122.145 21.232 122.26 21.232C122.346 21.232 122.412 21.2054 122.462 21.1539C122.5 21.1177 122.519 21.07 122.519 21.0128V19.8327C122.519 19.6364 122.483 19.4724 122.412 19.337Z" fill="white"/>
<path d="M123.691 18.1643C123.638 18.1319 123.583 18.1147 123.524 18.1147C123.442 18.1147 123.369 18.1414 123.306 18.1929C123.23 18.2577 123.192 18.3397 123.192 18.4427C123.192 18.5723 123.249 18.6676 123.363 18.7324C123.413 18.7591 123.465 18.7725 123.52 18.7725C123.617 18.7725 123.699 18.7382 123.762 18.6657C123.821 18.6028 123.852 18.5284 123.852 18.4446C123.852 18.3206 123.798 18.2272 123.691 18.1643ZM123.703 19.0737C123.649 19.0356 123.59 19.0165 123.522 19.0165C123.465 19.0165 123.411 19.0298 123.363 19.0603C123.293 19.1004 123.259 19.1614 123.259 19.2415V21.0049C123.259 21.0488 123.27 21.0869 123.291 21.1212C123.339 21.1936 123.415 21.2318 123.52 21.2318C123.611 21.2318 123.684 21.2013 123.733 21.1422C123.768 21.1059 123.785 21.0583 123.785 21.0049V19.2415C123.785 19.1728 123.756 19.1175 123.703 19.0737Z" fill="white"/>
<path d="M125.907 19.1194C125.876 19.0832 125.836 19.066 125.787 19.066H125.364V18.6104C125.364 18.5666 125.352 18.5284 125.331 18.496C125.285 18.4217 125.209 18.3835 125.106 18.3835C125.018 18.3835 124.95 18.4121 124.9 18.4674C124.864 18.5075 124.847 18.5532 124.847 18.6104V19.066H124.422C124.391 19.066 124.363 19.0737 124.338 19.0889C124.277 19.1271 124.246 19.19 124.246 19.2777C124.246 19.3539 124.269 19.413 124.319 19.455C124.347 19.4797 124.382 19.4931 124.422 19.4931H124.847V21.0087C124.847 21.0526 124.856 21.0907 124.877 21.1231C124.925 21.1955 124.999 21.2318 125.102 21.2318C125.194 21.2318 125.264 21.2013 125.316 21.1441C125.348 21.1078 125.364 21.0621 125.364 21.0087V19.4931H125.787C125.819 19.4931 125.848 19.4855 125.871 19.4702C125.934 19.4302 125.964 19.3673 125.964 19.2834C125.964 19.2167 125.945 19.1633 125.907 19.1194Z" fill="white"/>
<path d="M127.737 19.1194C127.706 19.0832 127.666 19.066 127.617 19.066H127.193V18.6104C127.193 18.5666 127.182 18.5284 127.161 18.496C127.113 18.4217 127.039 18.3835 126.936 18.3835C126.848 18.3835 126.78 18.4121 126.73 18.4674C126.694 18.5075 126.675 18.5532 126.675 18.6104V19.066H126.252C126.221 19.066 126.192 19.0737 126.168 19.0889C126.107 19.1271 126.076 19.19 126.076 19.2777C126.076 19.3539 126.099 19.413 126.147 19.455C126.177 19.4797 126.212 19.4931 126.252 19.4931H126.675V21.0087C126.675 21.0526 126.686 21.0907 126.707 21.1231C126.755 21.1955 126.829 21.2318 126.932 21.2318C127.024 21.2318 127.094 21.2013 127.146 21.1441C127.176 21.1078 127.193 21.0621 127.193 21.0087V19.4931H127.617C127.649 19.4931 127.676 19.4855 127.7 19.4702C127.761 19.4302 127.792 19.3673 127.792 19.2834C127.792 19.2167 127.775 19.1633 127.737 19.1194Z" fill="white"/>
<path d="M129.809 20.5242C129.758 20.5242 129.712 20.5452 129.672 20.5871C129.529 20.7339 129.357 20.8064 129.155 20.8064C128.978 20.8064 128.829 20.753 128.713 20.6424C128.606 20.5414 128.549 20.4117 128.541 20.2497H129.819C129.916 20.2497 129.985 20.2268 130.028 20.1811C130.067 20.1391 130.086 20.0667 130.086 19.9618C130.086 19.7273 130.002 19.5157 129.836 19.327C129.639 19.1039 129.388 18.9915 129.085 18.9915C128.717 18.9915 128.431 19.1287 128.229 19.4071C128.08 19.6053 128.008 19.8455 128.008 20.1258C128.008 20.5014 128.137 20.7968 128.398 21.0104C128.597 21.1724 128.843 21.2544 129.134 21.2544C129.474 21.2544 129.739 21.1629 129.929 20.9799C130.004 20.9093 130.04 20.8388 130.04 20.7644C130.04 20.7015 130.017 20.6462 129.971 20.5986C129.922 20.549 129.868 20.5242 129.809 20.5242ZM128.801 19.4833C128.886 19.4318 128.98 19.4071 129.079 19.4071C129.245 19.4071 129.374 19.4643 129.466 19.5767C129.527 19.6511 129.556 19.7235 129.556 19.796C129.556 19.8284 129.537 19.8455 129.495 19.8455H128.549C128.576 19.6854 128.66 19.5653 128.801 19.4833Z" fill="white"/>
<path d="M132.221 20.5242C132.169 20.5242 132.124 20.5452 132.084 20.5871C131.941 20.7339 131.769 20.8064 131.567 20.8064C131.39 20.8064 131.241 20.753 131.125 20.6424C131.018 20.5414 130.961 20.4117 130.953 20.2497H132.23C132.328 20.2497 132.396 20.2268 132.44 20.1811C132.478 20.1391 132.497 20.0667 132.497 19.9618C132.497 19.7273 132.413 19.5157 132.247 19.327C132.051 19.1039 131.799 18.9915 131.496 18.9915C131.128 18.9915 130.842 19.1287 130.64 19.4071C130.494 19.6053 130.419 19.8455 130.419 20.1258C130.419 20.5014 130.549 20.7968 130.81 21.0104C131.008 21.1724 131.254 21.2544 131.546 21.2544C131.885 21.2544 132.15 21.1629 132.341 20.9799C132.415 20.9093 132.451 20.8388 132.451 20.7644C132.451 20.7015 132.429 20.6462 132.383 20.5986C132.333 20.549 132.28 20.5242 132.221 20.5242ZM131.212 19.4833C131.298 19.4318 131.391 19.4071 131.491 19.4071C131.656 19.4071 131.786 19.4643 131.878 19.5767C131.939 19.6511 131.967 19.7235 131.967 19.796C131.967 19.8284 131.948 19.8455 131.906 19.8455H130.961C130.987 19.6854 131.071 19.5653 131.212 19.4833Z" fill="white"/>
</svg>
