<svg width="350" height="77" viewBox="0 0 350 77" fill="none" xmlns="http://www.w3.org/2000/svg">
<path d="M224.736 7.17896V27.3557H224.942C229.367 27.3557 233.296 27.3409 236.958 27.3157C238.842 27.303 240.576 27.2892 242.16 27.2747L246.459 27.2297C248.929 27.2054 250.467 27.1907 251.08 27.1897V34.5442C247.889 34.5543 243.567 34.5702 240.391 34.5852C235.209 34.6054 230.027 34.6303 224.85 34.6555L224.654 34.6565L224.645 34.8528C224.237 44.2056 221.782 52.1662 217.359 58.5374C212.927 64.9228 205.875 70.0898 196.377 73.9006C195.479 72.6833 194.577 71.4613 193.674 70.2249H193.673C192.994 69.2897 192.32 68.3588 191.645 67.4329C197.155 65.3119 201.766 62.7629 205.345 59.8557C208.94 56.9374 211.702 53.3918 213.554 49.3215C215.39 45.2878 216.465 40.4276 216.759 34.8831L216.771 34.6653H196.776C195.926 34.6653 195.076 34.6757 194.122 34.6858C192.914 34.6959 191.542 34.7112 189.806 34.7112C188.109 34.7112 186.773 34.7007 185.822 34.6956L186.11 27.1995C186.125 27.1996 186.144 27.2002 186.165 27.2004C186.242 27.2014 186.355 27.2026 186.5 27.2043C186.789 27.2078 187.202 27.2131 187.698 27.219C188.689 27.2308 190.012 27.2472 191.334 27.2629C193.943 27.2941 196.558 27.3236 196.642 27.3245V27.3254C199.431 27.3558 202.523 27.3665 206.099 27.3665H216.845V7.17896H224.736Z" fill="white" stroke="white" stroke-width="0.4125"/>
<path d="M196.356 74.1246C196.311 74.1246 196.27 74.1044 196.245 74.0691C195.336 72.8367 194.422 71.5994 193.508 70.3468C192.811 69.3872 192.119 68.4327 191.427 67.4832C191.402 67.4478 191.392 67.4024 191.407 67.362C191.417 67.3216 191.452 67.2862 191.493 67.2711C197.023 65.1498 201.639 62.5993 205.215 59.6953C208.786 56.7963 211.528 53.2761 213.366 49.2357C215.19 45.2306 216.26 40.3972 216.553 34.872H196.775C195.927 34.872 195.078 34.8821 194.124 34.8922C192.917 34.9023 191.543 34.9174 189.806 34.9174C188.068 34.9174 186.71 34.9073 185.755 34.9023C185.715 34.9023 185.679 34.8871 185.654 34.8568C185.629 34.8316 185.614 34.7912 185.614 34.7558L185.907 27.1295C185.907 27.0538 185.972 26.9932 186.048 26.9932C186.048 26.9932 196.619 27.1194 196.644 27.1194C199.432 27.1497 202.523 27.1598 206.099 27.1598H216.639V7.11431C216.639 7.03856 216.7 6.9729 216.781 6.9729H224.801C224.877 6.9729 224.942 7.03351 224.942 7.11431V27.1497C229.366 27.1497 233.296 27.1346 236.957 27.1093C240.725 27.0841 243.892 27.0538 246.457 27.0235C249.018 26.9982 250.579 26.9831 251.144 26.9831C251.22 26.9831 251.286 27.0437 251.286 27.1245V34.6093C251.286 34.6851 251.225 34.7508 251.144 34.7508C247.947 34.7609 243.589 34.776 240.392 34.7912C235.21 34.8114 230.028 34.8366 224.851 34.8619C224.442 44.2457 221.978 52.2458 217.528 58.6549C213.058 65.0943 205.952 70.2913 196.402 74.1145C196.387 74.1196 196.366 74.1246 196.351 74.1246H196.356Z" fill="white" stroke="white" stroke-width="3.4485" stroke-miterlimit="10"/>
<path d="M289.189 10.2192C289.135 11.8098 289.074 13.9682 289.024 16.6508C288.969 19.3887 288.924 22.3994 288.898 25.602C288.873 28.6479 288.858 31.6795 288.858 34.6196V34.894L289.122 34.8178C290.973 34.2831 292.942 33.6795 295.003 33.017L297.094 32.3354C299.964 31.3903 302.891 30.3793 305.791 29.3383C308.692 28.2972 311.462 27.2456 314.025 26.2143C316.585 25.1875 318.809 24.1844 320.644 23.2446L324.798 30.3901C322.58 31.3341 319.96 32.3293 317.017 33.3588C314.059 34.3934 310.895 35.443 307.604 36.4828C304.363 37.5076 301.071 38.5022 297.811 39.436C294.524 40.3801 291.64 41.1829 289.01 41.8998L288.858 41.9418V42.0991L288.833 55.9653C288.818 57.0247 289.051 57.9512 289.533 58.7094L289.633 58.8588C290.587 60.2229 292.33 60.8053 296.084 61.1782C297.657 61.3355 299.094 61.4018 300.746 61.4018C301.987 61.4018 303.264 61.3607 304.799 61.3051H304.8C307.076 61.2167 309.074 61.1179 310.644 61.0327L313.921 60.8403C316.993 60.6432 319.98 60.4162 322.79 60.1635C325.546 59.9143 327.984 59.6199 330.047 59.2914C329.908 60.5711 329.761 61.856 329.607 63.1508C329.428 64.6727 329.242 66.1843 329.048 67.6811C326.238 67.9568 322.915 68.223 319.182 68.4789C315.426 68.7313 311.625 68.9335 307.87 69.0698C304.182 69.208 300.745 69.2767 297.649 69.2797V69.2719H297.443C293.652 69.2719 290.576 69.0318 288.28 68.5688L287.832 68.4741C285.626 67.975 284.013 67.0228 283.002 65.6586L282.808 65.3803C281.814 63.863 281.301 61.6016 281.301 58.6196V10.2192H289.189Z" fill="white" stroke="white" stroke-width="0.4125"/>
<path d="M297.443 69.4779C293.393 69.4779 290.145 69.2052 287.787 68.6749C285.398 68.1345 283.665 67.0638 282.635 65.4931C281.61 63.9274 281.095 61.6193 281.095 58.6193V10.1545C281.095 10.0788 281.155 10.0131 281.236 10.0131H289.256C289.297 10.0131 289.332 10.0283 289.357 10.0535C289.383 10.0788 289.398 10.1192 289.398 10.1545C289.342 11.7505 289.282 13.9323 289.231 16.6546C289.176 19.3919 289.13 22.402 289.105 25.6041C289.08 28.6495 289.064 31.6799 289.064 34.6193C291.529 33.9071 294.206 33.0738 297.029 32.1395C299.898 31.195 302.822 30.1849 305.721 29.1445C308.62 28.1041 311.388 27.0536 313.948 26.0233C316.529 24.9879 318.767 23.9778 320.605 23.0334C320.625 23.0233 320.645 23.0182 320.671 23.0182C320.721 23.0182 320.767 23.0435 320.792 23.0889L325.014 30.3516C325.034 30.3869 325.039 30.4273 325.024 30.4677C325.014 30.5081 324.984 30.5384 324.943 30.5536C322.706 31.5081 320.059 32.5132 317.085 33.5536C314.125 34.589 310.958 35.6395 307.666 36.6799C304.423 37.7051 301.13 38.7001 297.868 39.6344C294.58 40.5789 291.696 41.3819 289.064 42.0991L289.039 55.9678C289.024 57.0638 289.282 57.9981 289.802 58.7405C290.696 60.0183 292.342 60.5991 296.105 60.9729C297.671 61.1294 299.1 61.1951 300.746 61.1951C301.984 61.1951 303.256 61.1547 304.792 61.0991C309.342 60.9224 312.777 60.7052 313.908 60.6345C316.979 60.4375 319.964 60.2102 322.772 59.9577C325.565 59.7052 328.029 59.4072 330.105 59.0739C330.11 59.0739 330.12 59.0739 330.125 59.0739C330.161 59.0739 330.196 59.089 330.221 59.1143C330.251 59.1446 330.267 59.19 330.262 59.2304C330.12 60.5385 329.969 61.8517 329.812 63.1749C329.63 64.7153 329.443 66.2456 329.246 67.7608C329.236 67.8264 329.186 67.8769 329.12 67.882C326.297 68.1598 322.953 68.4274 319.196 68.685C315.438 68.9375 311.635 69.1396 307.878 69.2759C304.105 69.4173 300.595 69.488 297.443 69.488V69.4779Z" fill="white" stroke="white" stroke-width="3.4485" stroke-miterlimit="10"/>
<path d="M128.023 5.06799C127.969 7.13028 127.969 9.66504 128.024 12.5983C128.08 15.4995 128.191 18.663 128.353 21.9928L128.363 22.2057L128.575 22.1891C130.732 22.022 133.196 21.7384 135.906 21.3541C137.838 21.081 140.818 20.6108 144.056 19.9176C146.264 19.447 148.487 18.9001 150.656 18.3004C150.913 19.6596 151.141 21.0418 151.319 22.4088C151.452 23.418 151.566 24.4471 151.656 25.4615C149.816 26.0181 147.509 26.5378 144.792 27.0074C142.745 27.363 140.642 27.6843 138.52 27.9655L136.393 28.233C133.628 28.5611 131.105 28.8135 128.891 28.985L128.691 29.0006L128.702 29.2008C128.924 33.3936 129.176 37.6374 129.454 41.8151C129.731 45.9859 129.959 49.7272 130.125 52.943L130.133 53.0905L130.275 53.1315C134.607 54.3607 138.85 55.9526 142.875 57.8717C146.909 59.7914 150.653 61.9207 153.998 64.2028C153.203 65.2411 152.404 66.3036 151.605 67.3805C150.915 68.314 150.234 69.2389 149.572 70.1588C146.885 68.5287 144.114 66.9669 141.316 65.5114L140.107 64.8903C137.087 63.3527 133.972 61.9067 130.841 60.5817L130.554 60.4596V61.6549C130.554 65.4499 129.13 68.6206 126.311 71.1012C123.743 73.367 119.737 74.5299 114.367 74.5299H114.161V74.5328C113.744 74.5305 113.32 74.5224 112.888 74.5094H112.889C108.178 74.3438 104.583 73.0609 102.167 70.7291C99.7378 68.385 98.5123 65.6439 98.5122 62.5846C98.5122 60.4154 99.2179 58.3979 100.611 56.5885C101.912 54.8975 103.767 53.509 106.14 52.4645L106.622 52.2604C108.965 51.3029 111.756 50.816 114.917 50.816C115.249 50.816 115.585 50.8206 115.926 50.8307H115.932C117.042 50.8307 118.161 50.8862 119.254 51.0016H119.255C120.302 51.1072 121.333 51.2431 122.331 51.3942L122.583 51.4323L122.568 51.1774C122.346 47.6773 122.093 43.8235 121.82 39.6168V39.6158C121.547 35.4648 121.275 31.1372 121.017 26.7389C120.765 22.4519 120.553 18.377 120.386 14.6256C120.221 10.9006 120.135 7.68366 120.133 5.06799H128.023ZM114.816 56.2213C112.002 56.2214 109.442 56.9521 107.58 58.1422C105.719 59.3307 104.529 60.9969 104.529 62.8668C104.529 64.7369 105.719 66.4038 107.58 67.5924C109.442 68.7825 112.002 69.5132 114.816 69.5133C117.63 69.5133 120.19 68.7826 122.053 67.5924C123.914 66.4038 125.103 64.7368 125.103 62.8668C125.103 60.997 123.913 59.3307 122.053 58.1422C120.19 56.952 117.63 56.2213 114.816 56.2213Z" fill="white" stroke="white" stroke-width="0.4125"/>
<path d="M114.367 74.7409C113.882 74.7409 113.387 74.7308 112.882 74.7157C108.14 74.549 104.488 73.2561 102.023 70.8773C99.5587 68.4985 98.3062 65.7056 98.3062 62.5843C98.3062 60.3672 99.0284 58.3065 100.448 56.4631C101.862 54.6247 103.912 53.1449 106.544 52.0692C108.917 51.0995 111.735 50.6096 114.917 50.6096C115.251 50.6096 115.589 50.6146 115.932 50.6247C117.049 50.6247 118.175 50.6803 119.276 50.7964C120.326 50.9025 121.362 51.0388 122.362 51.1904C122.14 47.6903 121.887 43.8368 121.614 39.6297C121.342 35.4782 121.069 31.1499 120.811 26.7509C120.559 22.463 120.347 18.3872 120.18 14.6347C120.013 10.8771 119.927 7.63467 119.927 5.00335C119.927 4.9276 119.988 4.86194 120.069 4.86194H128.089C128.129 4.86194 128.165 4.87709 128.19 4.90234C128.215 4.9276 128.23 4.968 128.23 5.00335C128.175 7.07407 128.175 9.62963 128.23 12.5943C128.286 15.4933 128.397 18.6549 128.559 21.9832C130.71 21.8165 133.17 21.5337 135.877 21.1499C137.806 20.8771 140.781 20.4074 144.013 19.7155C146.241 19.2408 148.483 18.6903 150.67 18.0842C150.68 18.0842 150.695 18.0842 150.705 18.0842C150.731 18.0842 150.756 18.0893 150.781 18.1044C150.816 18.1246 150.837 18.16 150.847 18.1953C151.109 19.5792 151.342 20.9883 151.523 22.3822C151.66 23.4125 151.776 24.463 151.867 25.4984C151.872 25.564 151.832 25.6246 151.766 25.6448C149.907 26.2105 147.574 26.7357 144.826 27.2105C142.094 27.6852 139.261 28.0994 136.417 28.4378C133.65 28.7661 131.124 29.0186 128.907 29.1903C129.129 33.3822 129.382 37.6247 129.66 41.8014C129.938 45.9732 130.165 49.7156 130.332 52.9328C134.675 54.1651 138.927 55.7611 142.963 57.6853C147.029 59.6197 150.801 61.7661 154.17 64.0692C154.2 64.0894 154.226 64.1247 154.231 64.1651C154.236 64.2056 154.231 64.2409 154.205 64.2712C153.397 65.3268 152.584 66.4076 151.771 67.5035C151.069 68.453 150.377 69.3924 149.705 70.3268C149.68 70.3672 149.635 70.3874 149.589 70.3874C149.564 70.3874 149.539 70.3823 149.518 70.3672C146.433 68.4935 143.236 66.7106 140.013 65.0742C136.998 63.5389 133.887 62.0944 130.761 60.7712V61.655C130.761 65.5086 129.311 68.7359 126.448 71.2561C123.826 73.5692 119.761 74.7359 114.367 74.7359V74.7409ZM114.816 56.4277C109.256 56.4277 104.735 59.3166 104.735 62.8672C104.735 66.4177 109.256 69.3066 114.816 69.3066C120.377 69.3066 124.897 66.4177 124.897 62.8672C124.897 59.3166 120.377 56.4277 114.816 56.4277Z" fill="white" stroke="white" stroke-width="3.4485" stroke-miterlimit="10"/>
<path d="M70.5376 1.94678C72.7625 1.94678 74.7755 2.75008 76.3618 4.33643C77.9485 5.92321 78.7504 7.87526 78.7505 10.1597C78.7505 12.4422 77.9503 14.3257 76.3657 15.9399C74.7837 17.5515 72.8262 18.3677 70.5425 18.3677H70.5376C68.3111 18.3677 66.3732 17.5519 64.7593 15.938C63.1455 14.3241 62.3296 12.3811 62.3296 10.1597C62.3297 7.9361 63.1471 5.92403 64.7583 4.3374C66.3719 2.74852 68.3149 1.9468 70.5376 1.94678ZM70.5376 3.37256C66.7977 3.37261 63.7506 6.41449 63.7505 10.1597C63.7505 13.9049 66.7924 16.9467 70.5376 16.9468C74.2828 16.9468 77.3247 13.9049 77.3247 10.1597C77.3246 6.41456 74.2827 3.37256 70.5376 3.37256Z" fill="white" stroke="white" stroke-width="0.4125"/>
<path d="M70.5377 18.5741C68.2549 18.5741 66.265 17.7357 64.6134 16.0842C62.9619 14.4327 62.1235 12.4377 62.1235 10.1599C62.1235 7.88215 62.9619 5.81649 64.6134 4.19022C66.265 2.56396 68.2599 1.74072 70.5377 1.74072C72.8155 1.74072 74.8811 2.56396 76.5074 4.19022C78.1337 5.81649 78.9569 7.82155 78.9569 10.1599C78.9569 12.4983 78.1337 14.4327 76.5125 16.0842C74.8912 17.7357 72.8811 18.5741 70.5427 18.5741H70.5377ZM70.5377 3.57911C66.9114 3.57911 63.9569 6.52862 63.9569 10.1599C63.9569 13.7913 66.9064 16.7408 70.5377 16.7408C74.169 16.7408 77.1185 13.7913 77.1185 10.1599C77.1185 6.52862 74.169 3.57911 70.5377 3.57911Z" fill="white" stroke="white" stroke-width="3.4815" stroke-miterlimit="10"/>
<path d="M50.1118 7.65948C51.5382 10.2467 53.0338 12.8219 54.561 15.3255L55.2212 16.3997L55.6851 17.1517L55.686 17.1526C57.7346 20.4626 58.8692 22.2999 60.5884 24.304C62.6099 26.6599 64.6988 28.7493 66.7993 30.515C68.8809 32.2654 70.8668 33.7195 72.7065 34.8333C72.2207 35.6852 71.7195 36.5398 71.2075 37.3802L70.6812 38.2327C69.9663 39.3794 69.2205 40.5251 68.4663 41.6429C66.4178 40.3617 64.1508 38.4764 61.7349 36.0306V36.0296C59.4169 33.6864 57.1313 30.8684 54.9351 27.6546L54.5601 27.7952C55.2807 34.0189 55.3258 39.9067 54.7017 45.3079C54.0574 50.8795 52.6791 55.8256 50.6157 60.0179C48.5443 64.2159 45.6978 67.5405 42.1499 69.9124V69.9134C38.6089 72.2856 34.2613 73.4896 29.2241 73.4896L29.2231 73.4935C22.6764 73.4894 17.5241 71.6536 13.8794 68.0687C10.2327 64.4768 8.37061 59.2633 8.37061 52.5384C8.37065 48.7917 8.93759 45.0033 10.0532 41.2845C11.1007 37.7976 12.4892 34.3411 14.1812 30.9896L14.5239 30.3206C16.293 26.9135 18.2437 23.6327 20.3198 20.5638L20.7163 19.9778L20.0669 20.2581C17.6449 21.3062 15.1574 22.1888 12.6519 22.8919L11.5767 23.1829C8.58194 23.9629 5.96323 24.4974 3.78857 24.7757L1.9624 17.8128C4.21382 17.6291 6.47923 17.3031 8.68994 16.847H8.69092C10.0409 16.5678 12.8123 15.9241 16.2114 14.7337H16.2124C17.3811 14.3239 18.6743 13.8507 20.2271 13.1556C20.8119 12.8962 21.766 12.4512 22.9722 11.8177C24.9394 10.7863 26.9099 9.59882 28.8364 8.29327L33.5376 13.3626C30.4575 16.863 27.6693 20.615 25.23 24.5316L24.7456 25.3206C22.7216 28.6603 20.3649 32.8603 18.2827 38.6712C16.6543 43.2115 15.8315 47.7351 15.8315 52.1146C15.8315 56.3662 16.9593 59.7294 19.2192 61.9935L19.4419 62.2093C21.8428 64.471 25.1459 65.6038 29.2349 65.6038C32.8859 65.6038 36.0825 64.5917 38.728 62.5921C41.3712 60.593 43.5073 57.7855 45.0796 54.2542V54.2532C46.6504 50.7099 47.7057 46.5271 48.2075 41.8235C48.8866 35.4635 48.4559 30.5673 47.9956 26.4857C47.355 20.7861 46.1256 15.0767 44.3394 9.52277L50.1118 7.65948ZM3.7417 24.8499V24.8489V24.8499ZM3.76025 24.845V24.846V24.845Z" fill="white" stroke="white" stroke-width="0.4125"/>
<path d="M29.2448 73.7005C22.6488 73.7005 17.4316 71.852 13.7346 68.2156C10.0376 64.5742 8.1639 59.3014 8.1639 52.5388C8.1639 48.7711 8.7346 44.963 9.85582 41.2256C10.977 37.4933 12.4871 33.7963 14.3407 30.2256C16.1134 26.8114 18.068 23.5235 20.1488 20.4478C17.371 21.6498 14.5073 22.6347 11.6286 23.3821C8.60329 24.17 5.95682 24.7104 3.75984 24.9882C3.75479 24.9882 3.74974 24.9882 3.73964 24.9882C3.67398 24.9882 3.61843 24.9478 3.60328 24.8821L1.74469 17.7912C1.73458 17.7508 1.74469 17.7053 1.76489 17.675C1.79014 17.6397 1.82549 17.6195 1.87095 17.6144C4.13863 17.4326 6.42147 17.1043 8.64875 16.6447C9.99218 16.367 12.7548 15.7255 16.1437 14.5387C17.3104 14.1296 18.5983 13.6599 20.1437 12.968C20.7245 12.7104 21.674 12.2659 22.8761 11.6346C24.8508 10.5993 26.8306 9.40734 28.765 8.0942C28.7902 8.07905 28.8155 8.06895 28.8458 8.06895C28.8862 8.06895 28.9215 8.0841 28.9518 8.11441L33.7296 13.2659C33.7801 13.3215 33.7801 13.4023 33.7296 13.4579C30.4367 17.1952 27.4771 21.2205 24.9215 25.4276C22.9013 28.7609 20.5528 32.9478 18.4771 38.7408C16.8558 43.261 16.0377 47.761 16.0377 52.1145C16.0377 56.4681 17.2296 59.8469 19.5831 62.059C21.9367 64.2762 25.1841 65.3974 29.2347 65.3974C32.8458 65.3974 35.9973 64.3974 38.6034 62.4277C41.2145 60.4529 43.3307 57.6752 44.8913 54.1701C46.4519 50.6499 47.5024 46.4883 48.0024 41.8014C48.6792 35.463 48.2499 30.5842 47.7903 26.5084C47.1489 20.8013 45.9165 15.0841 44.1236 9.5235C44.0983 9.44774 44.1387 9.36694 44.2145 9.34673L50.0984 7.44774C50.0984 7.44774 50.1287 7.44269 50.1438 7.44269C50.1943 7.44269 50.2448 7.46794 50.2701 7.51845C51.9064 10.4882 53.6337 13.4427 55.3964 16.2912L55.861 17.0437C57.9115 20.3569 59.0378 22.1801 60.7449 24.17C62.76 26.5185 64.8408 28.5993 66.9317 30.3569C69.0277 32.1195 71.0227 33.5791 72.8661 34.6902C72.9318 34.7306 72.952 34.8165 72.9166 34.8822C72.255 36.0438 71.5631 37.2105 70.856 38.3418C70.1287 39.5084 69.3711 40.6751 68.6035 41.8115C68.5782 41.8519 68.5328 41.8721 68.4873 41.8721C68.4621 41.8721 68.4368 41.867 68.4116 41.8519C66.3307 40.5589 64.0327 38.6499 61.5883 36.1751C59.26 33.8216 56.9671 30.9933 54.765 27.771C55.4873 34.0084 55.5327 39.9125 54.9065 45.3317C54.26 50.9226 52.8761 55.8923 50.8004 60.1095C48.7145 64.3368 45.8458 67.6903 42.265 70.0843C38.6842 72.4833 34.3155 73.7005 29.2448 73.7005Z" fill="white" stroke="white" stroke-width="3.4815" stroke-miterlimit="10"/>
<path d="M325.126 10.5085L327 9.0761C328.276 8.09998 330.103 8.3437 331.079 9.62041L337.392 17.8772C338.368 19.1539 338.124 20.9805 336.848 21.9566L334.974 23.3891C333.697 24.3652 331.871 24.1215 330.895 22.8448L324.582 14.588C323.606 13.3113 323.849 11.4846 325.126 10.5085Z" fill="white" stroke="white" stroke-width="0.4125"/>
<path d="M335.523 6.45427L337.397 5.02184C338.673 4.04572 340.5 4.28944 341.476 5.56615L347.789 13.8229C348.765 15.0996 348.521 16.9263 347.245 17.9024L345.371 19.3348C344.094 20.3109 342.268 20.0672 341.292 18.7905L334.979 10.5337C334.003 9.25699 334.246 7.43039 335.523 6.45427Z" fill="white" stroke="white" stroke-width="0.4125"/>
</svg>
