<svg width="60" height="25" viewBox="0 0 60 25" fill="none" xmlns="http://www.w3.org/2000/svg">
<path d="M49.9221 11.1794C41.4072 14.0412 38.4086 15.4614 34.7577 18.9078C32.7276 20.8249 31.577 22.7049 30.9154 24.3377C30.7413 24.7668 30.3773 24.9674 30.0093 24.9741C30.0093 24.9741 30.0084 24.9741 30.0066 24.9741C29.5629 25.0737 29.058 24.8917 28.8428 24.3616C28.1798 22.7288 27.0306 20.8488 24.9992 18.933C21.3496 15.4867 18.3496 14.0651 9.83604 11.2046C5.67358 9.80562 -1.91796 8.5355 0.446922 3.44967C3.96502 -4.11796 18.6366 2.41869 24.3734 8.02798C26.5736 10.179 28.7498 14.2803 29.8751 17.6111C30.9978 14.2763 33.178 10.159 35.3847 8.00406C41.1216 2.39477 55.7918 -4.1432 59.3113 3.42575C61.6761 8.51025 54.0833 9.78171 49.9221 11.1794Z" fill="#397437"/>
</svg>
