<svg width="408" height="280" viewBox="0 0 408 280" fill="none" xmlns="http://www.w3.org/2000/svg">
<path d="M408 151.196C408 187.258 353.038 216.492 285.24 216.492C284.501 216.492 283.762 216.492 283.029 216.477C271.357 253.099 232.468 280 186.295 280C130.895 280 85.9839 241.269 85.9839 193.497C85.9839 193.109 85.9839 192.714 85.9904 192.327H85.9839C38.4962 192.327 0 162.004 0 124.608C0 87.2112 38.4962 56.8885 85.9839 56.8885C87.756 56.8885 89.5085 56.9332 91.2545 57.0152C105.647 23.9495 147.89 0 197.758 0C259.488 0 309.533 36.6958 309.533 81.9636C309.533 83.7078 309.461 85.4446 309.31 87.159C365.587 93.1072 408 119.517 408 151.196Z" fill="#3B7536"/>
</svg>
