<svg width="34" height="31" viewBox="0 0 34 31" fill="none" xmlns="http://www.w3.org/2000/svg">
<path d="M3.25439 1.54541C7.05127 6.83889 10.8513 12.1293 14.6482 17.4227C17.3978 21.2544 20.1505 25.0892 22.9001 28.9209C25.6718 28.9114 28.4435 28.902 31.2152 28.8925C24.6688 19.78 18.1255 10.6675 11.5791 1.55499C8.80418 1.55499 6.02928 1.54857 3.25439 1.54541Z" stroke="#3B7536" stroke-width="2.54074" stroke-miterlimit="10"/>
<path d="M5.33047 30.2238C8.84258 26.4142 12.3547 22.6047 15.8637 18.7984C15.2562 18.1181 14.0127 17.4379 13.4052 16.7607C9.22861 21.2505 5.05205 25.7371 0.875488 30.2269H4.69766L5.33047 30.2238Z" fill="#3B7536" stroke="#3B7536" stroke-width="0.762539" stroke-miterlimit="10"/>
<path d="M28.5709 0.383789C24.9987 4.13637 21.4296 7.8889 17.8574 11.6446C18.4554 12.3344 19.0535 13.0243 19.6515 13.7109C23.8976 9.2875 28.147 4.86725 32.3931 0.443888C31.118 0.424903 29.8461 0.402773 28.5709 0.383789Z" fill="#3B7536" stroke="#3B7536" stroke-width="0.762539" stroke-miterlimit="10"/>
</svg>
