<svg width="54" height="49" viewBox="0 0 54 49" fill="none" xmlns="http://www.w3.org/2000/svg">
<path d="M5.14331 2.44141C11.1433 10.8064 17.1483 19.1665 23.1483 27.5315C27.4933 33.5865 31.8434 39.6464 36.1884 45.7014C40.5684 45.6864 44.9483 45.6715 49.3283 45.6565C38.9833 31.2565 28.6433 16.8565 18.2983 2.45654C13.9133 2.45654 9.52831 2.44641 5.14331 2.44141Z" stroke="white" stroke-width="4.015" stroke-miterlimit="10"/>
<path d="M8.42328 47.7612C13.9733 41.7412 19.5233 35.7213 25.0683 29.7063C24.1083 28.6313 22.1433 27.5563 21.1833 26.4863C14.5833 33.5813 7.9833 40.6711 1.3833 47.7661H7.42328L8.42328 47.7612Z" fill="white" stroke="white" stroke-width="1.205" stroke-miterlimit="10"/>
<path d="M45.1483 0.606445C39.5033 6.53645 33.8633 12.4664 28.2183 18.4014C29.1633 19.4914 30.1083 20.5815 31.0533 21.6665C37.7633 14.6765 44.4783 7.69142 51.1883 0.701416C49.1733 0.671416 47.1633 0.636445 45.1483 0.606445Z" fill="white" stroke="white" stroke-width="1.205" stroke-miterlimit="10"/>
</svg>
